<?xml version="1.0" encoding="utf-8"?>
<!-- Generator: Adobe Illustrator 14.0.0, SVG Export Plug-In . SVG Version: 6.00 Build 43363)  -->
<!DOCTYPE svg PUBLIC "-//W3C//DTD SVG 1.1//EN" "http://www.w3.org/Graphics/SVG/1.1/DTD/svg11.dtd">
<svg version="1.1"
	 id="svg2"  xmlns:svg="http://www.w3.org/2000/svg" xmlns:dc="http://purl.org/dc/elements/1.1/"  xmlns:cc="http://web.resource.org/cc/" xmlns:rdf="http://www.w3.org/1999/02/22-rdf-syntax-ns#"
	 xmlns="http://www.w3.org/2000/svg" xmlns:xlink="http://www.w3.org/1999/xlink" x="0px" y="0px" width="190.253px"
	 height="88.297px" viewBox="304 -1.725 190.253 88.297" enable-background="new 304 -1.725 190.253 88.297" xml:space="preserve">

<path id="path14" fill="#E5E5E5" d="M346.493,60.03c-8.961,0-13.366-5.458-15.085-11.158c1.942,9.255,12.424,18.314,45.493,22.358
	c31.245,3.816,51.608-5.756,58.475-10.212c0,0,4.642-2.042,1.855,1.115c0,0-19.678,18.19-58.288,18.377
	c-38.611,0.186-69.24-19.305-69.056-38.981c-0.184-19.678,30.445-39.17,69.056-38.986C417.553,2.73,437.23,20.92,437.23,20.92
	c2.786,3.157-1.855,1.115-1.855,1.115c-6.866-4.457-27.143-13.23-58.475-10.209c-30.813,2.97-40.873,13.438-44.214,20.493
	c-1.288,2.715-1.867,5.273-2.014,7.852c0.833-6.729,5.016-14.665,15.82-14.665c12.239,0,15.984,10.183,15.984,17.261
	C362.478,49.847,358.732,60.03,346.493,60.03z M470.901,53.226h16.304v5.937h-23.154V26.373h6.851V53.226z M445.748,41.488h13.701
	v17.675h-4.569l-0.683-4.11c-1.737,2.011-4.248,4.978-10.231,4.978c-7.899,0-15.069-5.662-15.069-17.171
	c0-8.949,4.979-17.398,16.028-17.353c10.047,0,14.02,6.531,14.386,11.05h-6.851c0-1.279-2.327-5.386-7.17-5.386
	c-4.885,0-9.404,3.378-9.404,11.78c0,8.951,4.886,11.281,9.543,11.281c1.507,0,6.53-0.597,7.944-7.216h-7.625V41.488z
	 M346.493,29.433c-7.124,0-11.416,5.617-11.416,13.334c0,7.72,4.292,13.337,11.416,13.337s11.418-5.617,11.418-13.337
	C357.912,35.05,353.617,29.433,346.493,29.433z M364.935,38.195h3.327v2.965h0.081c0.84-1.201,2.445-3.566,6.253-3.566
	c5.574,0,9.546,4.725,9.546,10.618c0,5.01-2.89,11.551-10.027,11.551c-2.806,0-4.65-1.322-5.571-2.806h-0.081v10.506h-3.529V38.195z
	 M373.85,56.717c3.849,0,6.458-3.335,6.458-7.947c0-2.685-1.085-8.011-6.539-8.011c-5.09,0-5.652,5.493-5.652,8.901
	C368.117,55.234,371.606,56.717,373.85,56.717z M405.493,52.586c-0.121,1.003-1.083,3.97-3.73,5.732
	c-0.963,0.643-2.325,1.443-5.692,1.443c-5.894,0-9.382-4.448-9.382-10.503c0-6.495,3.128-11.666,10.062-11.666
	c6.055,0,9.022,4.812,9.022,12.229h-15.316c0,4.369,2.045,6.896,6.095,6.896c3.328,0,5.292-2.566,5.414-4.131H405.493z
	 M401.754,47.016c-0.201-3.25-1.564-6.257-5.854-6.257c-3.25,0-5.815,3.007-5.815,6.257H401.754z M425.271,59.162h-3.528v-12.91
	c0-3.646-1.043-5.493-4.49-5.493c-2.006,0-5.531,1.284-5.531,6.977v11.427h-3.529V38.195h3.328v2.965h0.08
	c0.76-1.121,2.725-3.566,6.334-3.566c3.247,0,7.337,1.322,7.337,7.297V59.162z"/>
<path id="path18" fill="#537F9A" d="M489.21,54.438v0.297h-0.93v2.569h-0.369v-2.569h-0.936v-0.297H489.21z M490.083,54.438
	l0.714,2.287h0.015l0.743-2.287h0.548v2.866h-0.325v-2.569h-0.015l-0.844,2.569h-0.245l-0.792-2.569h-0.015v2.569h-0.326v-2.866
	H490.083z"/>
<path id="path22" fill="#DDDDDD" d="M346.413,60.112c-8.961,0-13.369-5.455-15.085-11.159c1.938,9.255,12.421,18.317,45.493,22.358
	c31.243,3.82,51.605-5.755,58.472-10.209c0,0,4.641-2.042,1.858,1.112c0,0-19.678,18.194-58.288,18.379
	c-38.615,0.187-69.243-19.306-69.056-38.983c-0.187-19.678,30.441-39.167,69.056-38.982c38.61,0.185,58.288,18.378,58.288,18.378
	c2.782,3.157-1.858,1.115-1.858,1.115c-6.867-4.456-27.14-13.23-58.472-10.212c-30.816,2.969-40.875,13.44-44.217,20.495
	c-1.285,2.714-1.867,5.274-2.011,7.853c0.833-6.729,5.016-14.668,15.82-14.668c12.236,0,15.981,10.187,15.981,17.264
	S358.649,60.112,346.413,60.112z M470.82,53.308c5.433,0,10.869,0,16.302,0c0,1.979,0,3.958,0,5.938c-7.717,0-15.435,0-23.151,0
	c0-10.93,0-21.858,0-32.787c2.282,0,4.566,0,6.85,0C470.82,35.407,470.82,44.358,470.82,53.308z M445.665,41.573
	c4.569,0,9.134,0,13.7,0c0,5.891,0,11.781,0,17.673c-1.521,0-3.045,0-4.566,0c-0.227-1.372-0.458-2.74-0.686-4.111
	c-1.734,2.011-4.246,4.978-10.229,4.978c-7.901,0-15.071-5.66-15.071-17.169c0-8.952,4.978-17.397,16.03-17.354
	c10.045,0,14.02,6.53,14.386,11.053c-2.284,0-4.569,0-6.851,0c0-1.278-2.33-5.39-7.169-5.39c-4.888,0-9.408,3.379-9.408,11.781
	c0,8.953,4.886,11.28,9.544,11.28c1.506,0,6.529-0.594,7.947-7.216c-2.544,0-5.085,0-7.628,0
	C445.665,45.256,445.665,43.413,445.665,41.573z M346.413,29.517c-7.126,0-11.418,5.617-11.418,13.335
	c0,7.716,4.292,13.333,11.418,13.333c7.124,0,11.416-5.617,11.416-13.333C357.828,35.134,353.536,29.517,346.413,29.517z
	 M364.851,38.277c1.112,0,2.22,0,3.33,0c0,0.988,0,1.979,0,2.968c0.026,0,0.051,0,0.078,0c0.844-1.205,2.445-3.569,6.256-3.569
	c5.571,0,9.543,4.725,9.543,10.617c0,5.013-2.89,11.555-10.024,11.555c-2.809,0-4.653-1.322-5.574-2.807c-0.026,0-0.052,0-0.081,0
	c0,3.501,0,7.003,0,10.503c-1.176,0-2.351,0-3.529,0C364.854,57.786,364.854,48.033,364.851,38.277z M373.766,56.799
	c3.851,0,6.459-3.336,6.459-7.945c0-2.687-1.086-8.01-6.54-8.01c-5.09,0-5.652,5.493-5.652,8.9
	C368.034,55.316,371.522,56.799,373.766,56.799z M405.409,52.671c-0.12,1.003-1.083,3.969-3.729,5.732
	c-0.963,0.643-2.326,1.443-5.692,1.443c-5.894,0-9.382-4.45-9.382-10.506c0-6.492,3.128-11.666,10.064-11.666
	c6.051,0,9.019,4.811,9.019,12.229c-5.104,0-10.208,0-15.312,0c0,4.369,2.045,6.896,6.092,6.896c3.327,0,5.292-2.566,5.413-4.128
	C403.056,52.668,404.233,52.668,405.409,52.671z M401.67,47.097c-0.201-3.246-1.564-6.253-5.853-6.253
	c-3.247,0-5.813,3.007-5.813,6.253C393.893,47.097,397.781,47.097,401.67,47.097z M425.188,59.245c-1.176,0-2.352,0-3.529,0
	c0-4.304,0-8.607,0-12.908c0-3.649-1.039-5.493-4.487-5.493c-2.005,0-5.534,1.281-5.534,6.976c0,3.81,0,7.617,0,11.426
	c-1.176,0-2.354,0-3.528,0c0-6.989,0-13.98,0-20.969c1.108,0,2.218,0,3.327,0c0,0.988,0,1.979,0,2.968c0.029,0,0.055,0,0.08,0
	c0.764-1.124,2.729-3.569,6.334-3.569c3.25,0,7.338,1.325,7.338,7.296C425.188,49.73,425.188,54.49,425.188,59.245z"/>
<path id="path26" fill="#D6D6D6" d="M346.329,59.781c-8.961,0-13.366-5.459-15.086-11.159c1.942,9.255,12.424,18.314,45.493,22.358
	c31.245,3.817,51.605-5.755,58.475-10.212c0,0,4.641-2.042,1.855,1.115c0,0-19.678,18.19-58.288,18.379
	c-38.612,0.184-69.24-19.307-69.057-38.983c-0.184-19.678,30.445-39.17,69.057-38.982c38.61,0.184,58.288,18.378,58.288,18.378
	c2.785,3.154-1.855,1.111-1.855,1.111c-6.869-4.452-27.143-13.229-58.475-10.208c-30.813,2.97-40.873,13.438-44.214,20.492
	c-1.288,2.717-1.87,5.273-2.014,7.852c0.833-6.729,5.016-14.664,15.82-14.664c12.239,0,15.984,10.183,15.984,17.263
	C362.313,49.599,358.568,59.781,346.329,59.781z M470.737,52.978c5.434,0,10.868,0,16.301,0c0,1.979,0,3.958,0,5.937
	c-7.716,0-15.434,0-23.151,0c0-10.932,0-21.861,0-32.789c2.285,0,4.566,0,6.851,0C470.737,35.074,470.737,44.028,470.737,52.978z
	 M445.584,41.242c4.566,0,9.132,0,13.697,0c0,5.89,0,11.78,0,17.672c-1.521,0-3.042,0-4.565,0c-0.228-1.371-0.456-2.739-0.686-4.11
	c-1.734,2.011-4.246,4.978-10.229,4.978c-7.899,0-15.069-5.663-15.069-17.171c0-8.95,4.979-17.399,16.027-17.353
	c10.048,0,14.021,6.53,14.386,11.052c-2.283,0-4.565,0-6.85,0c0-1.278-2.33-5.389-7.17-5.389c-4.885,0-9.407,3.378-9.407,11.781
	c0,8.95,4.886,11.28,9.543,11.28c1.509,0,6.532-0.594,7.947-7.216c-2.543,0-5.084,0-7.625,0
	C445.584,44.923,445.584,43.082,445.584,41.242z M346.329,29.184c-7.124,0-11.416,5.617-11.416,13.337
	c0,7.717,4.292,13.334,11.416,13.334s11.415-5.617,11.415-13.334C357.744,34.801,353.453,29.184,346.329,29.184z M364.771,37.947
	c1.109,0,2.218,0,3.326,0c0,0.988,0,1.976,0,2.967c0.027-0.003,0.055-0.003,0.081,0c0.842-1.204,2.446-3.569,6.254-3.569
	c5.574,0,9.543,4.725,9.543,10.618c0,5.01-2.889,11.554-10.024,11.554c-2.806,0-4.653-1.325-5.574-2.809c-0.026,0-0.052,0-0.078,0
	c0,3.503,0,7.004,0,10.506c-1.179,0-2.354,0-3.529,0C364.771,57.456,364.771,47.699,364.771,37.947z M373.686,56.468
	c3.848,0,6.456-3.335,6.456-7.947c0-2.685-1.084-8.011-6.537-8.011c-5.093,0-5.655,5.494-5.655,8.901
	C367.95,54.986,371.439,56.468,373.686,56.468z M405.326,52.338c-0.121,1.003-1.084,3.969-3.728,5.734
	c-0.963,0.641-2.326,1.443-5.692,1.443c-5.893,0-9.382-4.449-9.382-10.506c0-6.495,3.125-11.666,10.062-11.666
	c6.055,0,9.021,4.812,9.021,12.229c-5.106,0-10.211,0-15.315,0c0,4.37,2.045,6.896,6.095,6.896c3.327,0,5.292-2.566,5.41-4.13
	C402.975,52.338,404.15,52.338,405.326,52.338z M401.586,46.767c-0.197-3.25-1.563-6.257-5.853-6.257
	c-3.247,0-5.813,3.007-5.813,6.257C393.809,46.767,397.698,46.767,401.586,46.767z M425.106,58.914c-1.178,0-2.354,0-3.528,0
	c0-4.304,0-8.607,0-12.91c0-3.647-1.043-5.494-4.49-5.494c-2.006,0-5.534,1.285-5.534,6.978c0,3.808,0,7.619,0,11.427
	c-1.176,0-2.351,0-3.526,0c0-6.991,0-13.979,0-20.968c1.109,0,2.219,0,3.328,0c0,0.988,0,1.976,0,2.967
	c0.025-0.003,0.051-0.003,0.08,0c0.76-1.124,2.725-3.569,6.334-3.569c3.246,0,7.337,1.323,7.337,7.297
	C425.106,49.397,425.106,54.156,425.106,58.914z"/>
<path id="path30" fill="#CECECE" d="M346.246,60.285c-8.958,0-13.366-5.459-15.083-11.163c1.939,9.259,12.421,18.317,45.49,22.359
	c31.246,3.819,51.605-5.755,58.475-10.209c0,0,4.641-2.043,1.854,1.111c0,0-19.677,18.194-58.288,18.379
	c-38.611,0.187-69.24-19.306-69.056-38.983c-0.184-19.676,30.445-39.167,69.056-38.981c38.611,0.187,58.288,18.377,58.288,18.377
	c2.786,3.157-1.854,1.115-1.854,1.115c-6.87-4.456-27.144-13.23-58.475-10.212c-30.813,2.971-40.873,13.44-44.214,20.495
	c-1.285,2.714-1.867,5.274-2.014,7.853c0.833-6.729,5.019-14.665,15.82-14.665c12.239,0,15.984,10.184,15.984,17.261
	S358.485,60.285,346.246,60.285z M470.653,53.478c5.437,0,10.869,0,16.305,0c0,1.979,0,3.958,0,5.938c-7.717,0-15.438,0-23.154,0
	c0-10.929,0-21.858,0-32.787c2.285,0,4.568,0,6.85,0C470.653,35.578,470.653,44.528,470.653,53.478z M445.501,41.742
	c4.565,0,9.131,0,13.7,0c0,5.891,0,11.782,0,17.673c-1.524,0-3.045,0-4.569,0c-0.228-1.369-0.455-2.739-0.683-4.108
	c-1.737,2.008-4.248,4.979-10.231,4.979c-7.898,0-15.067-5.664-15.067-17.171c0-8.951,4.977-17.399,16.026-17.354
	c10.048,0,14.02,6.53,14.386,11.05c-2.281,0-4.565,0-6.851,0c0-1.278-2.327-5.39-7.17-5.39c-4.884,0-9.404,3.382-9.404,11.781
	c0,8.953,4.886,11.28,9.543,11.28c1.507,0,6.53-0.593,7.945-7.216c-2.541,0-5.085,0-7.625,0
	C445.501,45.427,445.501,43.583,445.501,41.742z M346.246,29.687c-7.124,0-11.417,5.617-11.417,13.335
	c0,7.716,4.293,13.333,11.417,13.333s11.418-5.617,11.418-13.333C357.664,35.304,353.369,29.687,346.246,29.687z M364.687,38.447
	c1.109,0,2.218,0,3.326,0c0,0.991,0,1.979,0,2.968c0.029,0,0.055,0,0.082,0c0.841-1.202,2.445-3.569,6.253-3.569
	c5.574,0,9.546,4.725,9.546,10.618c0,5.012-2.89,11.554-10.027,11.554c-2.806,0-4.649-1.322-5.571-2.806c-0.026,0-0.055,0-0.081,0
	c0,3.5,0,7.003,0,10.502c-1.176,0-2.354,0-3.529,0C364.687,57.96,364.687,48.203,364.687,38.447z M373.602,56.97
	c3.848,0,6.458-3.333,6.458-7.945c0-2.685-1.086-8.011-6.539-8.011c-5.09,0-5.652,5.493-5.652,8.901
	C367.87,55.486,371.358,56.97,373.602,56.97z M405.245,52.841c-0.121,1.003-1.083,3.97-3.73,5.732
	c-0.962,0.643-2.324,1.443-5.692,1.443c-5.894,0-9.382-4.45-9.382-10.503c0-6.495,3.127-11.669,10.062-11.669
	c6.054,0,9.022,4.813,9.022,12.229c-5.104,0-10.209,0-15.316,0c0,4.369,2.045,6.896,6.095,6.896c3.327,0,5.292-2.564,5.413-4.129
	C402.892,52.841,404.066,52.841,405.245,52.841z M401.503,47.267c-0.198-3.246-1.562-6.253-5.85-6.253
	c-3.25,0-5.816,3.007-5.816,6.253C393.729,47.267,397.617,47.267,401.503,47.267z M425.022,59.415c-1.175,0-2.354,0-3.528,0
	c0-4.304,0-8.607,0-12.908c0-3.649-1.043-5.493-4.49-5.493c-2.005,0-5.531,1.282-5.531,6.977c0,3.809,0,7.616,0,11.425
	c-1.178,0-2.354,0-3.528,0c0-6.989,0-13.977,0-20.969c1.108,0,2.218,0,3.327,0c0,0.991,0,1.979,0,2.968c0.025,0,0.055,0,0.08,0
	c0.761-1.12,2.725-3.569,6.334-3.569c3.247,0,7.337,1.325,7.337,7.3C425.022,49.901,425.022,54.659,425.022,59.415z"/>
<path id="path34" fill="#C6C6C6" d="M346.165,59.612c-8.961,0-13.369-5.459-15.086-11.159c1.939,9.255,12.421,18.317,45.493,22.358
	c31.242,3.816,51.604-5.755,58.472-10.211c0,0,4.641-2.043,1.858,1.114c0,0-19.678,18.19-58.288,18.378
	C340,80.277,309.372,60.786,309.558,41.11C309.372,21.432,340,1.94,378.614,2.127c38.61,0.184,58.288,18.378,58.288,18.378
	c2.782,3.153-1.858,1.111-1.858,1.111c-6.867-4.453-27.14-13.228-58.472-10.209c-30.816,2.971-40.876,13.441-44.217,20.493
	c-1.285,2.717-1.866,5.273-2.011,7.854c0.833-6.731,5.016-14.668,15.82-14.668c12.236,0,15.981,10.184,15.981,17.264
	C362.146,49.428,358.401,59.612,346.165,59.612z M470.573,52.808c5.433,0,10.868,0,16.301,0c0,1.979,0,3.957,0,5.937
	c-7.717,0-15.434,0-23.151,0c0-10.929,0-21.858,0-32.79c2.282,0,4.566,0,6.851,0C470.573,34.908,470.573,43.858,470.573,52.808z
	 M445.417,41.072c4.566,0,9.134,0,13.7,0c0,5.891,0,11.782,0,17.673c-1.521,0-3.045,0-4.566,0c-0.227-1.371-0.458-2.739-0.685-4.11
	c-1.734,2.011-4.246,4.978-10.229,4.978c-7.901,0-15.072-5.663-15.072-17.171c0-8.95,4.979-17.399,16.03-17.354
	c10.045,0,14.021,6.531,14.386,11.053c-2.284,0-4.567,0-6.85,0c0-1.278-2.331-5.389-7.17-5.389c-4.888,0-9.407,3.379-9.407,11.782
	c0,8.949,4.885,11.279,9.543,11.279c1.506,0,6.53-0.593,7.947-7.216c-2.544,0-5.084,0-7.628,0
	C445.417,44.753,445.417,42.912,445.417,41.072z M346.165,29.017c-7.126,0-11.418,5.617-11.418,13.334
	c0,7.718,4.292,13.334,11.418,13.334c7.124,0,11.415-5.616,11.415-13.334C357.58,34.634,353.289,29.017,346.165,29.017z
	 M364.604,37.777c1.112,0,2.221,0,3.329,0c0,0.988,0,1.976,0,2.967c0.026,0,0.052,0,0.079,0c0.844-1.203,2.445-3.569,6.256-3.569
	c5.571,0,9.543,4.725,9.543,10.618c0,5.01-2.89,11.554-10.024,11.554c-2.809,0-4.652-1.325-5.574-2.808c-0.027,0-0.052,0-0.081,0
	c0,3.502,0,7.002,0,10.505c-1.176,0-2.351,0-3.529,0C364.604,57.286,364.604,47.531,364.604,37.777z M373.519,56.299
	c3.851,0,6.458-3.336,6.458-7.945c0-2.688-1.085-8.014-6.539-8.014c-5.09,0-5.651,5.493-5.651,8.901
	C367.786,54.816,371.274,56.299,373.519,56.299z M405.162,52.167c-0.121,1.003-1.084,3.97-3.73,5.735
	c-0.963,0.641-2.325,1.443-5.692,1.443c-5.894,0-9.382-4.45-9.382-10.506c0-6.495,3.127-11.666,10.064-11.666
	c6.052,0,9.02,4.812,9.02,12.229c-5.104,0-10.209,0-15.313,0c0,4.37,2.045,6.896,6.092,6.896c3.327,0,5.292-2.567,5.413-4.132
	C402.808,52.167,403.986,52.167,405.162,52.167z M401.422,46.597c-0.201-3.249-1.564-6.257-5.853-6.257
	c-3.247,0-5.813,3.008-5.813,6.257C393.645,46.597,397.534,46.597,401.422,46.597z M424.939,58.744c-1.175,0-2.351,0-3.529,0
	c0-4.304,0-8.607,0-12.911c0-3.646-1.04-5.493-4.487-5.493c-2.005,0-5.533,1.285-5.533,6.978c0,3.808,0,7.619,0,11.427
	c-1.175,0-2.354,0-3.529,0c0-6.991,0-13.979,0-20.968c1.109,0,2.218,0,3.327,0c0,0.988,0,1.976,0,2.967c0.029,0,0.055,0,0.081,0
	c0.763-1.123,2.728-3.569,6.334-3.569c3.249,0,7.337,1.322,7.337,7.297C424.939,49.23,424.939,53.986,424.939,58.744z"/>
<path id="path38" fill="#BFBFBF" d="M346.081,60.455c-8.961,0-13.366-5.459-15.085-11.163c1.942,9.259,12.421,18.318,45.493,22.359
	c31.246,3.819,51.605-5.755,58.474-10.208c0,0,4.642-2.043,1.855,1.114c0,0-19.678,18.19-58.288,18.375
	c-38.611,0.187-69.24-19.306-69.056-38.983c-0.184-19.676,30.445-39.167,69.056-38.981c38.61,0.187,58.288,18.377,58.288,18.377
	c2.786,3.157-1.855,1.115-1.855,1.115c-6.869-4.456-27.143-13.23-58.474-10.212c-30.813,2.974-40.873,13.441-44.214,20.495
	c-1.288,2.714-1.87,5.274-2.014,7.853c0.833-6.729,5.015-14.665,15.82-14.665c12.239,0,15.984,10.184,15.984,17.261
	S358.32,60.455,346.081,60.455z M470.489,53.649c5.434,0,10.869,0,16.301,0c0,1.979,0,3.957,0,5.937c-7.716,0-15.434,0-23.15,0
	c0-10.929,0-21.858,0-32.787c2.284,0,4.565,0,6.85,0C470.489,35.748,470.489,44.698,470.489,53.649z M445.334,41.912
	c4.568,0,9.134,0,13.7,0c0,5.892,0,11.782,0,17.673c-1.521,0-3.042,0-4.566,0c-0.228-1.369-0.455-2.739-0.686-4.108
	c-1.734,2.008-4.245,4.979-10.229,4.979c-7.898,0-15.069-5.663-15.069-17.171c0-8.95,4.979-17.398,16.028-17.354
	c10.048,0,14.02,6.531,14.386,11.051c-2.284,0-4.565,0-6.851,0c0-1.279-2.33-5.391-7.17-5.391c-4.885,0-9.407,3.383-9.407,11.782
	c0,8.952,4.886,11.28,9.543,11.28c1.51,0,6.534-0.593,7.947-7.216c-2.543,0-5.084,0-7.627,0
	C445.334,45.597,445.334,43.753,445.334,41.912z M346.081,29.857c-7.123,0-11.415,5.617-11.415,13.335s4.292,13.335,11.415,13.335
	c7.124,0,11.416-5.617,11.416-13.335S353.205,29.857,346.081,29.857z M364.523,38.617c1.109,0,2.218,0,3.327,0
	c0,0.991,0,1.979,0,2.967c0.025,0,0.051,0,0.081,0c0.841-1.2,2.445-3.566,6.253-3.566c5.574,0,9.543,4.722,9.543,10.615
	c0,5.013-2.89,11.554-10.024,11.554c-2.806,0-4.653-1.321-5.574-2.805c-0.027,0-0.052,0-0.081,0c0.003,3.499,0.003,7.002,0,10.502
	c-1.176,0-2.351,0-3.526,0C364.523,58.13,364.523,48.374,364.523,38.617z M373.438,57.14c3.849,0,6.456-3.333,6.456-7.944
	c0-2.686-1.083-8.012-6.537-8.012c-5.093,0-5.654,5.493-5.654,8.901C367.703,55.659,371.191,57.14,373.438,57.14z M405.078,53.011
	c-0.121,1.003-1.084,3.97-3.728,5.732c-0.962,0.644-2.324,1.443-5.692,1.443c-5.894,0-9.382-4.45-9.382-10.502
	c0-6.496,3.125-11.667,10.061-11.667c6.055,0,9.022,4.812,9.022,12.229c-5.107-0.003-10.212-0.003-15.316,0
	c0,4.369,2.045,6.894,6.095,6.894c3.327,0,5.292-2.564,5.409-4.129C402.727,53.011,403.903,53.011,405.078,53.011z M401.339,47.438
	c-0.198-3.246-1.564-6.254-5.853-6.254c-3.247,0-5.813,3.008-5.813,6.254C393.562,47.438,397.45,47.438,401.339,47.438z
	 M424.858,59.585c-1.178,0-2.354,0-3.528,0c0-4.304,0-8.604,0-12.908c0-3.649-1.043-5.493-4.49-5.493
	c-2.006,0-5.534,1.282-5.534,6.978c0,3.808,0,7.615,0,11.424c-1.176,0-2.351,0-3.526,0c0-6.988,0-13.977,0-20.968
	c1.109,0,2.219,0,3.328,0c0,0.991,0,1.979,0,2.967c0.025,0,0.051,0,0.078,0c0.762-1.12,2.727-3.566,6.336-3.566
	c3.247,0,7.337,1.322,7.337,7.297C424.858,50.071,424.858,54.829,424.858,59.585z"/>
<path id="path42" fill="#BABABA" d="M345.998,59.442c-8.958,0-13.366-5.456-15.083-11.16c1.939,9.256,12.421,18.318,45.49,22.359
	c31.245,3.816,51.604-5.755,58.475-10.211c0,0,4.641-2.04,1.855,1.115c0,0-19.678,18.192-58.288,18.377
	c-38.611,0.184-69.24-19.306-69.055-38.983c-0.185-19.676,30.444-39.17,69.055-38.981c38.61,0.184,58.288,18.377,58.288,18.377
	c2.785,3.154-1.855,1.112-1.855,1.112c-6.87-4.453-27.144-13.228-58.475-10.209c-30.813,2.971-40.873,13.441-44.214,20.496
	c-1.285,2.713-1.867,5.273-2.014,7.852c0.833-6.731,5.018-14.668,15.82-14.668c12.239,0,15.984,10.187,15.984,17.264
	S358.237,59.442,345.998,59.442z M470.406,52.638c5.435,0,10.868,0,16.304,0c0,1.979,0,3.957,0,5.937c-7.717,0-15.437,0-23.154,0
	c0-10.929,0-21.858,0-32.787c2.285,0,4.569,0,6.851,0C470.406,34.738,470.406,43.688,470.406,52.638z M445.253,40.902
	c4.566,0,9.131,0,13.7,0c0,5.892,0,11.782,0,17.673c-1.523,0-3.045,0-4.569,0c-0.227-1.372-0.455-2.739-0.682-4.111
	c-1.737,2.011-4.249,4.979-10.231,4.979c-7.899,0-15.069-5.663-15.069-17.171c0-8.95,4.978-17.398,16.027-17.354
	c10.048,0,14.021,6.531,14.386,11.054c-2.281,0-4.565,0-6.85,0c0-1.279-2.328-5.39-7.17-5.39c-4.885,0-9.408,3.379-9.408,11.781
	c0,8.949,4.889,11.28,9.547,11.28c1.506,0,6.53-0.593,7.944-7.215c-2.541,0-5.084,0-7.625,0
	C445.253,44.586,445.253,42.742,445.253,40.902z M345.998,28.847c-7.124,0-11.415,5.616-11.415,13.334s4.292,13.335,11.415,13.335
	s11.418-5.617,11.418-13.335S353.121,28.847,345.998,28.847z M364.439,37.607c1.109,0,2.218,0,3.328,0c0,0.988,0,1.979,0,2.967
	c0.028,0,0.054,0,0.081,0c0.84-1.203,2.445-3.569,6.253-3.569c5.574,0,9.546,4.725,9.546,10.618c0,5.013-2.89,11.554-10.027,11.554
	c-2.806,0-4.65-1.321-5.571-2.805c-0.027-0.003-0.055-0.003-0.081,0c0,3.499,0,7.002,0,10.502c-1.176,0-2.354,0-3.529,0
	C364.439,57.117,364.439,47.361,364.439,37.607z M373.354,56.129c3.849,0,6.458-3.336,6.458-7.944c0-2.688-1.085-8.012-6.539-8.012
	c-5.09,0-5.651,5.49-5.651,8.898C367.622,54.646,371.11,56.129,373.354,56.129z M404.998,52c-0.121,1-1.084,3.968-3.73,5.732
	c-0.963,0.641-2.325,1.443-5.692,1.443c-5.894,0-9.382-4.45-9.382-10.505c0-6.493,3.127-11.667,10.061-11.667
	c6.054,0,9.023,4.812,9.023,12.229c-5.104,0-10.209,0-15.316,0c0,4.369,2.045,6.896,6.095,6.896c3.327,0,5.292-2.567,5.413-4.129
	C402.644,51.997,403.819,51.997,404.998,52z M401.256,46.428c-0.199-3.247-1.562-6.255-5.851-6.255c-3.25,0-5.816,3.008-5.816,6.255
	C393.481,46.428,397.37,46.428,401.256,46.428z M424.775,58.574c-1.175,0-2.354,0-3.529,0c0-4.304,0-8.607,0-12.911
	c0-3.646-1.042-5.49-4.49-5.49c-2.005,0-5.531,1.282-5.531,6.975c0,3.811,0,7.618,0,11.427c-1.178,0-2.354,0-3.528,0
	c0-6.988,0-13.979,0-20.968c1.109,0,2.218,0,3.327,0c0,0.988,0,1.979,0,2.967c0.025,0,0.055,0,0.081,0
	c0.76-1.123,2.724-3.569,6.334-3.569c3.247,0,7.337,1.325,7.337,7.297C424.775,49.06,424.775,53.816,424.775,58.574z"/>
<path id="path46" fill="#B2B2B2" d="M345.917,60.625c-8.961,0-13.369-5.459-15.085-11.159c1.939,9.255,12.421,18.314,45.493,22.356
	c31.242,3.818,51.605-5.753,58.472-10.209c0,0,4.642-2.042,1.858,1.115c0,0-19.678,18.189-58.288,18.374
	c-38.614,0.188-69.243-19.306-69.056-38.982c-0.187-19.677,30.442-39.166,69.056-38.982c38.61,0.187,58.288,18.378,58.288,18.378
	c2.783,3.156-1.858,1.114-1.858,1.114c-6.866-4.456-27.14-13.23-58.472-10.209c-30.816,2.971-40.875,13.438-44.217,20.493
	c-1.285,2.717-1.866,5.274-2.011,7.852c0.833-6.729,5.016-14.664,15.82-14.664c12.236,0,15.981,10.183,15.981,17.26
	C361.898,50.442,358.153,60.625,345.917,60.625z M470.325,53.822c5.434,0,10.868,0,16.301,0c0,1.979,0,3.957,0,5.937
	c-7.716-0.003-15.434-0.003-23.151,0c0-10.932,0-21.86,0-32.79c2.282,0,4.566,0,6.851,0
	C470.325,35.919,470.325,44.868,470.325,53.822z M445.169,42.082c4.566,0,9.135,0,13.7,0c0,5.892,0,11.782,0,17.676
	c-1.521-0.003-3.045-0.003-4.565,0c-0.23-1.37-0.458-2.742-0.686-4.11c-1.734,2.007-4.245,4.978-10.229,4.978
	c-7.902,0-15.071-5.663-15.071-17.171c0-8.95,4.978-17.398,16.03-17.353c10.044,0,14.02,6.53,14.386,11.05c-2.284,0-4.568,0-6.851,0
	c0-1.279-2.33-5.387-7.17-5.387c-4.888,0-9.407,3.379-9.407,11.782c0,8.949,4.886,11.276,9.543,11.276
	c1.507,0,6.53-0.593,7.947-7.212c-2.543,0-5.084,0-7.628,0C445.169,45.768,445.169,43.926,445.169,42.082z M345.917,30.029
	c-7.126,0-11.418,5.617-11.418,13.333c0,7.718,4.292,13.335,11.418,13.335c7.124,0,11.416-5.617,11.416-13.335
	C357.333,35.646,353.041,30.029,345.917,30.029z M364.355,38.79c1.112,0,2.221,0,3.33,0c0,0.988,0,1.976,0,2.964
	c0.026,0,0.051,0,0.078,0c0.843-1.2,2.445-3.565,6.256-3.565c5.571,0,9.543,4.721,9.543,10.614c0,5.013-2.889,11.554-10.024,11.554
	c-2.809,0-4.653-1.321-5.574-2.805c-0.026,0-0.055,0-0.081,0c0,3.499,0,7.002,0,10.505c-1.176-0.002-2.351-0.002-3.529,0
	C364.355,58.301,364.355,48.544,364.355,38.79z M373.271,57.313c3.852,0,6.459-3.336,6.459-7.947c0-2.686-1.086-8.012-6.54-8.012
	c-5.09,0-5.652,5.493-5.652,8.901C367.538,55.829,371.027,57.313,373.271,57.313z M404.914,53.181
	c-0.121,1.003-1.084,3.971-3.73,5.733c-0.963,0.643-2.324,1.442-5.692,1.442c-5.894,0-9.382-4.45-9.382-10.502
	c0-6.496,3.128-11.666,10.064-11.666c6.052,0,9.02,4.811,9.02,12.228c-5.104,0-10.209,0-15.313,0c0,4.37,2.045,6.896,6.092,6.896
	c3.328,0,5.292-2.567,5.413-4.132C402.561,53.181,403.738,53.181,404.914,53.181z M401.175,47.609
	c-0.202-3.247-1.564-6.255-5.854-6.255c-3.247,0-5.812,3.008-5.812,6.255C393.397,47.609,397.286,47.609,401.175,47.609z
	 M424.691,59.758c-1.175-0.003-2.351-0.003-3.529,0c0-4.304,0-8.607,0-12.911c0-3.649-1.039-5.493-4.486-5.493
	c-2.006,0-5.534,1.285-5.534,6.978c0,3.808,0,7.616,0,11.427c-1.176-0.003-2.354-0.003-3.528,0c0-6.99,0-13.979,0-20.968
	c1.108,0,2.218,0,3.326,0c0,0.988,0,1.976,0,2.964c0.029,0,0.055,0,0.081,0c0.763-1.12,2.728-3.565,6.334-3.565
	c3.25,0,7.337,1.321,7.337,7.296C424.691,50.24,424.691,54.999,424.691,59.758z"/>
<path id="path50" fill="#AAAAAA" d="M345.833,59.272c-8.961,0-13.366-5.456-15.085-11.16c1.941,9.256,12.421,18.317,45.493,22.36
	c31.246,3.818,51.605-5.756,58.475-10.209c0,0,4.641-2.043,1.855,1.111c0,0-19.678,18.193-58.288,18.378
	c-38.612,0.187-69.24-19.306-69.056-38.982c-0.184-19.677,30.444-39.167,69.056-38.982c38.61,0.185,58.288,18.378,58.288,18.378
	c2.785,3.153-1.855,1.111-1.855,1.111c-6.87-4.453-27.144-13.228-58.475-10.209c-30.813,2.971-40.873,13.44-44.214,20.495
	c-1.288,2.714-1.869,5.275-2.014,7.854c0.833-6.732,5.016-14.668,15.82-14.668c12.239,0,15.984,10.186,15.984,17.263
	C361.818,49.089,358.073,59.272,345.833,59.272z M470.241,52.468c5.434,0,10.869,0,16.302,0c0,1.979,0,3.957,0,5.937
	c-7.717,0-15.434,0-23.151,0c0-10.929,0-21.857,0-32.787c2.285,0,4.566,0,6.85,0C470.241,34.568,470.241,43.517,470.241,52.468z
	 M445.086,40.732c4.568,0,9.134,0,13.7,0c0,5.892,0,11.782,0,17.673c-1.521,0-3.042,0-4.566,0c-0.227-1.371-0.455-2.739-0.686-4.111
	c-1.734,2.011-4.245,4.979-10.229,4.979c-7.9,0-15.067-5.661-15.067-17.168c0-8.953,4.977-17.398,16.026-17.355
	c10.048,0,14.02,6.529,14.386,11.053c-2.284,0-4.568,0-6.851,0c0-1.279-2.33-5.391-7.169-5.391c-4.885,0-9.408,3.38-9.408,11.782
	c0,8.949,4.886,11.279,9.544,11.279c1.509,0,6.533-0.593,7.947-7.215c-2.544,0-5.085,0-7.628,0
	C445.086,44.416,445.086,42.573,445.086,40.732z M345.833,28.677c-7.124,0-11.416,5.617-11.416,13.334s4.292,13.334,11.416,13.334
	s11.416-5.617,11.416-13.334S352.957,28.677,345.833,28.677z M364.275,37.437c1.109,0,2.218,0,3.327,0c0,0.988,0,1.979,0,2.967
	c0.026,0,0.051,0,0.081,0c0.841-1.204,2.445-3.568,6.253-3.568c5.574,0,9.543,4.724,9.543,10.617
	c0,5.012-2.889,11.554-10.024,11.554c-2.806,0-4.653-1.321-5.574-2.806c-0.026,0-0.052,0-0.081,0c0.003,3.501,0.003,7.003,0,10.503
	c-1.176,0-2.351,0-3.526,0C364.275,56.948,364.275,47.194,364.275,37.437z M373.19,55.959c3.848,0,6.456-3.336,6.456-7.944
	c0-2.688-1.083-8.012-6.537-8.012c-5.093,0-5.655,5.493-5.655,8.901C367.455,54.475,370.943,55.959,373.19,55.959z M404.83,51.831
	c-0.121,0.999-1.084,3.967-3.727,5.732c-0.963,0.639-2.325,1.442-5.692,1.442c-5.894,0-9.382-4.45-9.382-10.505
	c0-6.493,3.126-11.666,10.062-11.666c6.054,0,9.022,4.81,9.022,12.228c-5.104,0-10.212,0-15.315,0c0,4.37,2.045,6.896,6.095,6.896
	c3.327,0,5.292-2.567,5.409-4.128C402.479,51.828,403.655,51.828,404.83,51.831z M401.091,46.257
	c-0.198-3.246-1.564-6.254-5.853-6.254c-3.247,0-5.813,3.008-5.813,6.254C393.313,46.257,397.202,46.257,401.091,46.257z
	 M424.611,58.405c-1.179,0-2.354,0-3.529,0c0-4.304,0-8.607,0-12.908c0-3.649-1.042-5.493-4.49-5.493
	c-2.005,0-5.533,1.282-5.533,6.974c0,3.812,0,7.619,0,11.428c-1.176,0-2.352,0-3.526,0c0-6.988,0-13.979,0-20.968
	c1.108,0,2.218,0,3.327,0c0,0.988,0,1.979,0,2.967c0.025,0,0.051,0,0.078,0c0.763-1.123,2.727-3.568,6.336-3.568
	c3.247,0,7.338,1.324,7.338,7.297C424.611,48.89,424.611,53.646,424.611,58.405z"/>
<path id="path54" fill="#A3A3A3" d="M345.75,60.789c-8.958,0-13.366-5.459-15.083-11.159c1.939,9.255,12.421,18.314,45.49,22.359
	c31.245,3.816,51.604-5.756,58.475-10.212c0,0,4.641-2.042,1.855,1.115c0,0-19.677,18.19-58.288,18.378
	c-38.611,0.185-69.24-19.307-69.055-38.982c-0.185-19.678,30.444-39.17,69.055-38.983c38.611,0.185,58.288,18.376,58.288,18.376
	c2.785,3.157-1.855,1.113-1.855,1.113c-6.87-4.456-27.144-13.229-58.475-10.207c-30.813,2.969-40.873,13.438-44.214,20.491
	c-1.285,2.717-1.866,5.274-2.014,7.853c0.833-6.729,5.019-14.664,15.82-14.664c12.239,0,15.984,10.182,15.984,17.259
	C361.734,50.608,357.989,60.789,345.75,60.789z M470.158,53.986c5.437,0,10.868,0,16.304,0c0,1.979,0,3.958,0,5.937
	c-7.716,0-15.437,0-23.153,0c0-10.932,0-21.86,0-32.789c2.284,0,4.568,0,6.85,0C470.158,36.083,470.158,45.035,470.158,53.986z
	 M445.005,42.25c4.566-0.002,9.132-0.002,13.7,0c0,5.888,0,11.781,0,17.672c-1.523,0-3.045,0-4.568,0
	c-0.228-1.37-0.456-2.742-0.683-4.11c-1.737,2.009-4.249,4.978-10.231,4.978c-7.898,0-15.068-5.663-15.068-17.171
	c0-8.95,4.978-17.398,16.027-17.352c10.047,0,14.02,6.529,14.385,11.052c-2.28,0-4.564,0-6.85,0c0-1.279-2.327-5.39-7.17-5.39
	c-4.885,0-9.407,3.379-9.407,11.782c0,8.949,4.889,11.279,9.546,11.279c1.506,0,6.53-0.596,7.944-7.215c-2.54,0-5.084,0-7.625,0
	C445.005,45.932,445.005,44.091,445.005,42.25z M345.75,30.193c-7.124,0-11.416,5.617-11.416,13.333
	c0,7.721,4.292,13.338,11.416,13.338s11.418-5.617,11.418-13.338C357.168,35.81,352.874,30.193,345.75,30.193z M364.191,38.955
	c1.109,0,2.218,0,3.327,0c0,0.988,0,1.976,0,2.967c0.029-0.003,0.054-0.003,0.081,0c0.841-1.204,2.445-3.569,6.253-3.569
	c5.574,0,9.546,4.724,9.546,10.618c0,5.009-2.889,11.553-10.027,11.553c-2.807,0-4.65-1.324-5.571-2.808c-0.026,0-0.055,0-0.081,0
	c0,3.503,0,7.003,0,10.506c-1.176,0-2.354,0-3.529,0C364.191,58.465,364.191,48.708,364.191,38.955z M373.106,57.477
	c3.848,0,6.459-3.336,6.459-7.947c0-2.686-1.087-8.012-6.54-8.012c-5.09,0-5.652,5.494-5.652,8.901
	C367.374,55.993,370.863,57.477,373.106,57.477z M404.75,53.347c-0.121,1.002-1.084,3.969-3.73,5.734
	c-0.963,0.64-2.325,1.442-5.692,1.442c-5.893,0-9.382-4.449-9.382-10.505c0-6.496,3.129-11.666,10.062-11.666
	c6.055,0,9.022,4.811,9.022,12.228c-5.104,0-10.209,0-15.316,0c0,4.371,2.045,6.896,6.095,6.896c3.327,0,5.292-2.567,5.413-4.13
	C402.396,53.347,403.572,53.347,404.75,53.347z M401.008,47.776c-0.199-3.25-1.562-6.258-5.851-6.258
	c-3.25,0-5.816,3.008-5.816,6.258C393.233,47.776,397.122,47.776,401.008,47.776z M424.527,59.922c-1.175,0-2.353,0-3.529,0
	c0-4.304,0-8.607,0-12.91c0-3.647-1.042-5.494-4.49-5.494c-2.004,0-5.53,1.285-5.53,6.978c0,3.808,0,7.616,0,11.427
	c-1.179,0-2.354,0-3.528,0c0-6.99,0-13.979,0-20.967c1.108,0,2.218,0,3.326,0c0,0.988,0,1.976,0,2.967
	c0.025-0.003,0.055-0.003,0.081,0c0.761-1.124,2.725-3.569,6.334-3.569c3.247,0,7.337,1.322,7.337,7.296
	C424.527,50.405,424.527,55.163,424.527,59.922z"/>
<path id="path58" fill="#9B9B9B" d="M345.669,59.105c-8.961,0-13.369-5.459-15.086-11.163c1.939,9.256,12.421,18.317,45.493,22.359
	c31.242,3.819,51.605-5.756,58.473-10.209c0,0,4.64-2.042,1.856,1.112c0,0-19.677,18.194-58.288,18.378
	c-38.614,0.188-69.243-19.306-69.055-38.982c-0.188-19.678,30.441-39.167,69.055-38.983c38.611,0.188,58.288,18.379,58.288,18.379
	c2.783,3.157-1.856,1.114-1.856,1.114c-6.868-4.456-27.142-13.23-58.473-10.211c-30.816,2.969-40.875,13.44-44.217,20.494
	c-1.285,2.714-1.866,5.275-2.011,7.854c0.833-6.729,5.016-14.665,15.82-14.665c12.236,0,15.981,10.183,15.981,17.26
	C361.651,48.919,357.906,59.105,345.669,59.105z M470.077,52.297c5.434,0,10.869,0,16.302,0c0,1.979,0,3.959,0,5.938
	c-7.717,0-15.435,0-23.151,0c0-10.929,0-21.857,0-32.786c2.282,0,4.565,0,6.85,0C470.077,34.398,470.077,43.348,470.077,52.297z
	 M444.922,40.563c4.565,0,9.134,0,13.7,0c0,5.891,0,11.781,0,17.672c-1.521,0-3.045,0-4.566,0c-0.23-1.368-0.457-2.739-0.686-4.11
	c-1.737,2.01-4.245,4.98-10.229,4.98c-7.901,0-15.07-5.664-15.07-17.172c0-8.952,4.977-17.397,16.029-17.352
	c10.045,0,14.02,6.526,14.386,11.05c-2.284,0-4.568,0-6.854,0c0-1.279-2.327-5.391-7.167-5.391c-4.887,0-9.407,3.383-9.407,11.782
	c0,8.952,4.886,11.28,9.543,11.28c1.507,0,6.531-0.594,7.948-7.216c-2.544,0-5.085,0-7.628,0
	C444.922,44.246,444.922,42.404,444.922,40.563z M345.669,28.507c-7.126,0-11.418,5.617-11.418,13.334s4.292,13.334,11.418,13.334
	c7.124,0,11.415-5.617,11.415-13.334S352.793,28.507,345.669,28.507z M364.108,37.267c1.112,0,2.221,0,3.33,0
	c0,0.988,0,1.979,0,2.968c0.025,0,0.051,0,0.078,0c0.844-1.202,2.445-3.569,6.256-3.569c5.571,0,9.543,4.724,9.543,10.617
	c0,5.012-2.889,11.555-10.024,11.555c-2.809,0-4.652-1.322-5.574-2.807c-0.026,0-0.055,0-0.081,0c0,3.501,0,7.003,0,10.503
	c-1.176,0-2.351,0-3.529,0C364.108,56.777,364.108,47.024,364.108,37.267z M373.023,55.789c3.848,0,6.458-3.334,6.458-7.945
	c0-2.687-1.086-8.011-6.539-8.011c-5.09,0-5.652,5.493-5.652,8.901C367.291,54.305,370.779,55.789,373.023,55.789z M404.666,51.661
	c-0.121,1.002-1.084,3.969-3.73,5.732c-0.962,0.642-2.324,1.443-5.692,1.443c-5.894,0-9.382-4.451-9.382-10.503
	c0-6.496,3.128-11.669,10.064-11.669c6.052,0,9.019,4.812,9.019,12.228c-5.104,0-10.209,0-15.313,0c0,4.37,2.042,6.896,6.092,6.896
	c3.327,0,5.291-2.563,5.412-4.128C402.312,51.661,403.491,51.661,404.666,51.661z M400.927,46.087
	c-0.202-3.246-1.564-6.254-5.853-6.254c-3.247,0-5.813,3.008-5.813,6.254C393.149,46.087,397.038,46.087,400.927,46.087z
	 M424.443,58.235c-1.175,0-2.35,0-3.528,0c0-4.304,0-8.604,0-12.908c0-3.649-1.04-5.493-4.487-5.493
	c-2.005,0-5.533,1.282-5.533,6.977c0,3.809,0,7.616,0,11.425c-1.176,0-2.354,0-3.529,0c0-6.988,0-13.98,0-20.968
	c1.109,0,2.218,0,3.327,0c0,0.988,0,1.979,0,2.968c0.028,0,0.056,0,0.081,0c0.763-1.121,2.727-3.569,6.334-3.569
	c3.249,0,7.336,1.324,7.336,7.296C424.443,48.72,424.443,53.479,424.443,58.235z"/>
<path id="path62" fill="#939393" d="M345.586,60.96c-8.961,0-13.366-5.459-15.086-11.16c1.942,9.256,12.424,18.315,45.493,22.359
	c31.245,3.817,51.604-5.756,58.475-10.212c0,0,4.641-2.042,1.855,1.115c0,0-19.677,18.19-58.288,18.378
	c-38.611,0.185-69.24-19.306-69.056-38.982c-0.184-19.678,30.445-39.17,69.056-38.983c38.611,0.186,58.288,18.379,58.288,18.379
	c2.785,3.154-1.855,1.112-1.855,1.112c-6.87-4.454-27.144-13.229-58.475-10.209c-30.813,2.969-40.873,13.438-44.214,20.492
	c-1.288,2.716-1.866,5.274-2.014,7.855c0.833-6.732,5.016-14.668,15.82-14.668c12.239,0,15.984,10.182,15.984,17.263
	C361.57,50.778,357.825,60.96,345.586,60.96z M469.994,54.156c5.433,0,10.868,0,16.304,0c0,1.979,0,3.959,0,5.937
	c-7.72,0-15.437,0-23.154,0c0-10.928,0-21.856,0-32.788c2.285,0,4.566,0,6.851,0C469.994,36.253,469.994,45.206,469.994,54.156z
	 M444.838,42.421c4.569,0,9.134,0,13.703,0c0,5.891,0,11.781,0,17.671c-1.523,0-3.045,0-4.569,0
	c-0.227-1.37-0.454-2.739-0.685-4.109c-1.734,2.01-4.246,4.978-10.229,4.978c-7.898,0-15.068-5.664-15.068-17.172
	c0-8.949,4.978-17.398,16.026-17.352c10.048,0,14.021,6.529,14.386,11.053c-2.284,0-4.564,0-6.85,0c0-1.279-2.33-5.39-7.17-5.39
	c-4.885,0-9.407,3.379-9.407,11.781c0,8.949,4.888,11.28,9.546,11.28c1.506,0,6.53-0.594,7.944-7.216c-2.541,0-5.084,0-7.628,0
	C444.838,46.102,444.838,44.262,444.838,42.421z M345.586,30.363c-7.124,0-11.416,5.617-11.416,13.337
	c0,7.717,4.292,13.334,11.416,13.334c7.123,0,11.415-5.617,11.415-13.334C357.001,35.98,352.709,30.363,345.586,30.363z
	 M364.027,39.125c1.109,0,2.218,0,3.327,0c0,0.988,0,1.977,0,2.967c0.025,0,0.054,0,0.081,0c0.841-1.204,2.445-3.568,6.253-3.568
	c5.574,0,9.543,4.723,9.543,10.617c0,5.009-2.889,11.555-10.024,11.555c-2.806,0-4.652-1.326-5.574-2.81c-0.027,0-0.052,0-0.078,0
	c0,3.503,0,7.003,0,10.506c-1.179,0-2.354,0-3.529,0C364.027,58.635,364.027,48.879,364.027,39.125z M372.942,57.648
	c3.848,0,6.456-3.337,6.456-7.945c0-2.688-1.083-8.014-6.537-8.014c-5.092,0-5.654,5.493-5.654,8.9
	C367.207,56.163,370.695,57.648,372.942,57.648z M404.582,53.517c-0.121,1.002-1.083,3.969-3.727,5.735
	c-0.963,0.639-2.325,1.443-5.692,1.443c-5.894,0-9.382-4.451-9.382-10.506c0-6.495,3.125-11.666,10.062-11.666
	c6.056,0,9.022,4.81,9.022,12.228c-5.104,0-10.212,0-15.316,0c0,4.37,2.045,6.896,6.095,6.896c3.327,0,5.292-2.566,5.41-4.131
	C402.231,53.517,403.408,53.517,404.582,53.517z M400.844,47.946c-0.199-3.249-1.565-6.257-5.854-6.257
	c-3.247,0-5.813,3.008-5.813,6.257C393.066,47.946,396.955,47.946,400.844,47.946z M424.363,60.092c-1.178,0-2.354,0-3.529,0
	c0-4.303,0-8.606,0-12.91c0-3.647-1.042-5.493-4.49-5.493c-2.005,0-5.533,1.285-5.533,6.977c0,3.809,0,7.619,0,11.427
	c-1.176,0-2.352,0-3.526,0c0-6.99,0-13.979,0-20.967c1.109,0,2.218,0,3.327,0c0,0.988,0,1.977,0,2.967c0.025,0,0.053,0,0.081,0
	c0.76-1.123,2.725-3.568,6.334-3.568c3.247,0,7.337,1.321,7.337,7.296C424.363,50.575,424.363,55.333,424.363,60.092z"/>
<path id="path66" fill="#8C8C8C" d="M345.502,58.934c-8.958,0-13.366-5.459-15.083-11.161c1.939,9.258,12.421,18.316,45.49,22.358
	c31.245,3.82,51.608-5.756,58.474-10.209c0,0,4.642-2.042,1.855,1.112c0,0-19.677,18.193-58.288,18.378
	c-38.611,0.188-69.24-19.305-69.055-38.982c-0.185-19.678,30.444-39.167,69.055-38.983c38.611,0.188,58.288,18.379,58.288,18.379
	c2.786,3.157-1.855,1.115-1.855,1.115c-6.866-4.457-27.143-13.23-58.474-10.212c-30.813,2.972-40.873,13.44-44.214,20.494
	c-1.285,2.714-1.866,5.275-2.014,7.854c0.833-6.729,5.018-14.665,15.82-14.665c12.239,0,15.984,10.182,15.984,17.261
	C361.486,48.749,357.741,58.934,345.502,58.934z M469.91,52.127c5.437,0,10.869,0,16.304,0c0,1.979,0,3.959,0,5.937
	c-7.716,0-15.437,0-23.153,0c0-10.929,0-21.856,0-32.785c2.284,0,4.568,0,6.85,0C469.91,34.228,469.91,43.178,469.91,52.127z
	 M444.757,40.393c4.566,0,9.135,0,13.701,0c0,5.891,0,11.78,0,17.671c-1.524,0-3.046,0-4.566,0c-0.23-1.367-0.457-2.739-0.686-4.106
	c-1.737,2.008-4.248,4.977-10.231,4.977c-7.898,0-15.068-5.663-15.068-17.171c0-8.949,4.978-17.398,16.027-17.352
	c10.048,0,14.02,6.529,14.386,11.049c-2.281,0-4.565,0-6.851,0c0-1.278-2.327-5.389-7.17-5.389c-4.885,0-9.404,3.381-9.404,11.781
	c0,8.953,4.886,11.28,9.543,11.28c1.507,0,6.531-0.594,7.944-7.216c-2.54,0-5.084,0-7.625,0
	C444.757,44.076,444.757,42.233,444.757,40.393z M345.502,28.337c-7.124,0-11.415,5.617-11.415,13.335
	c0,7.716,4.292,13.333,11.415,13.333s11.418-5.617,11.418-13.333C356.92,33.954,352.625,28.337,345.502,28.337z M363.944,37.097
	c1.109,0,2.218,0,3.327,0c0,0.991,0,1.979,0,2.967c0.028,0,0.054,0,0.081,0c0.841-1.201,2.445-3.565,6.253-3.565
	c5.574,0,9.546,4.721,9.546,10.614c0,5.012-2.889,11.555-10.027,11.555c-2.806,0-4.65-1.323-5.571-2.807c-0.029,0-0.055,0-0.081,0
	c0,3.5,0,7.003,0,10.503c-1.176,0-2.354,0-3.529,0C363.944,56.61,363.944,46.854,363.944,37.097z M372.858,55.618
	c3.849,0,6.459-3.333,6.459-7.944c0-2.685-1.086-8.01-6.54-8.01c-5.089,0-5.651,5.493-5.651,8.899
	C367.126,54.135,370.615,55.618,372.858,55.618z M404.502,51.491c-0.121,1.002-1.084,3.969-3.73,5.732
	c-0.962,0.642-2.324,1.443-5.692,1.443c-5.894,0-9.382-4.451-9.382-10.503c0-6.495,3.127-11.666,10.064-11.666
	c6.053,0,9.02,4.81,9.02,12.224c-5.104,0-10.209,0-15.316,0c0,4.371,2.045,6.896,6.095,6.896c3.327,0,5.291-2.562,5.412-4.127
	C402.148,51.491,403.324,51.491,404.502,51.491z M400.76,45.917c-0.199-3.247-1.562-6.253-5.85-6.253
	c-3.25,0-5.813,3.006-5.813,6.253C392.985,45.917,396.874,45.917,400.76,45.917z M424.279,58.064c-1.175,0-2.353,0-3.528,0
	c0-4.304,0-8.604,0-12.906c0-3.65-1.042-5.493-4.491-5.493c-2.004,0-5.53,1.28-5.53,6.976c0,3.808,0,7.616,0,11.424
	c-1.178,0-2.354,0-3.528,0c0-6.987,0-13.976,0-20.967c1.109,0,2.218,0,3.327,0c0,0.991,0,1.979,0,2.967c0.025,0,0.055,0,0.081,0
	c0.76-1.12,2.724-3.565,6.334-3.565c3.246,0,7.336,1.322,7.336,7.296C424.279,48.55,424.279,53.308,424.279,58.064z"/>
<path id="path70" fill="#878787" d="M345.421,61.13c-8.961,0-13.369-5.456-15.085-11.159c1.939,9.255,12.421,18.317,45.493,22.358
	c31.242,3.817,51.604-5.756,58.472-10.211c0,0,4.641-2.04,1.858,1.114c0,0-19.677,18.191-58.288,18.378
	c-38.613,0.185-69.243-19.305-69.055-38.982c-0.188-19.677,30.442-39.17,69.055-38.983c38.611,0.186,58.288,18.379,58.288,18.379
	c2.782,3.154-1.858,1.112-1.858,1.112c-6.867-4.454-27.141-13.229-58.472-10.209c-30.816,2.97-40.875,13.44-44.217,20.495
	c-1.285,2.713-1.866,5.274-2.011,7.853c0.833-6.732,5.015-14.668,15.82-14.668c12.236,0,15.981,10.186,15.981,17.264
	C361.403,50.948,357.658,61.13,345.421,61.13z M469.83,54.325c5.433,0,10.868,0,16.301,0c0,1.979,0,3.959,0,5.938
	c-7.717,0-15.434,0-23.151,0c0-10.929,0-21.857,0-32.789c2.282,0,4.566,0,6.851,0C469.83,36.426,469.83,45.376,469.83,54.325z
	 M444.674,42.591c4.566,0,9.134,0,13.7,0c0,5.891,0,11.781,0,17.672c-1.521,0-3.045,0-4.566,0c-0.227-1.371-0.458-2.739-0.685-4.11
	c-1.734,2.011-4.246,4.978-10.229,4.978c-7.901,0-15.071-5.664-15.071-17.172c0-8.949,4.977-17.397,16.029-17.352
	c10.045,0,14.021,6.529,14.386,11.053c-2.284,0-4.568,0-6.85,0c0-1.279-2.331-5.39-7.17-5.39c-4.888,0-9.408,3.379-9.408,11.781
	c0,8.95,4.886,11.28,9.544,11.28c1.506,0,6.53-0.594,7.947-7.216c-2.544,0-5.084,0-7.628,0
	C444.674,46.276,444.674,44.432,444.674,42.591z M345.421,30.535c-7.124,0-11.418,5.617-11.418,13.335
	c0,7.716,4.294,13.333,11.418,13.333s11.416-5.617,11.416-13.333C356.837,36.153,352.545,30.535,345.421,30.535z M363.86,39.295
	c1.112,0,2.221,0,3.331,0c0,0.988,0,1.979,0,2.968c0.025,0,0.051,0,0.078,0c0.843-1.205,2.445-3.569,6.256-3.569
	c5.571,0,9.543,4.725,9.543,10.618c0,5.011-2.889,11.554-10.024,11.554c-2.809,0-4.653-1.325-5.574-2.807
	c-0.026-0.003-0.052-0.003-0.081,0c0,3.501,0,7,0,10.503c-1.175,0-2.351,0-3.529,0C363.863,58.806,363.863,49.049,363.86,39.295z
	 M372.775,57.818c3.849,0,6.459-3.335,6.459-7.945c0-2.687-1.086-8.01-6.537-8.01c-5.092,0-5.654,5.49-5.654,8.897
	C367.043,56.333,370.531,57.818,372.775,57.818z M404.418,53.687c-0.121,1.003-1.083,3.97-3.73,5.735
	c-0.962,0.639-2.324,1.443-5.691,1.443c-5.894,0-9.382-4.451-9.382-10.506c0-6.495,3.128-11.666,10.064-11.666
	c6.052,0,9.019,4.81,9.019,12.229c-5.104,0-10.208,0-15.312,0c0,4.369,2.045,6.896,6.092,6.896c3.328,0,5.292-2.566,5.413-4.131
	C402.064,53.687,403.243,53.687,404.418,53.687z M400.68,48.115c-0.202-3.249-1.565-6.253-5.854-6.253
	c-3.247,0-5.812,3.004-5.812,6.253C392.902,48.115,396.791,48.115,400.68,48.115z M424.196,60.263c-1.175,0-2.352,0-3.526,0
	c0-4.304,0-8.606,0-12.91c0-3.646-1.042-5.49-4.49-5.49c-2.005,0-5.533,1.281-5.533,6.973c0,3.809,0,7.619,0,11.428
	c-1.176,0-2.354,0-3.529,0c0-6.988,0-13.979,0-20.968c1.109,0,2.219,0,3.327,0c0,0.988,0,1.979,0,2.968c0.028,0,0.054,0,0.081,0
	c0.763-1.124,2.727-3.569,6.334-3.569c3.25,0,7.337,1.322,7.337,7.297C424.196,50.749,424.196,55.505,424.196,60.263z"/>
<path id="path74" fill="#7F7F7F" d="M345.338,58.764c-8.961,0-13.366-5.458-15.085-11.161c1.942,9.258,12.424,18.317,45.493,22.358
	c31.245,3.82,51.605-5.753,58.475-10.209c0,0,4.642-2.042,1.855,1.115c0,0-19.677,18.19-58.288,18.375
	c-38.612,0.188-69.24-19.306-69.055-38.982c-0.185-19.678,30.443-39.167,69.055-38.983c38.611,0.188,58.288,18.379,58.288,18.379
	c2.786,3.157-1.855,1.114-1.855,1.114c-6.869-4.457-27.143-13.23-58.475-10.209c-30.816,2.97-40.872,13.438-44.214,20.493
	c-1.288,2.713-1.869,5.273-2.014,7.852c0.833-6.729,5.016-14.665,15.82-14.665c12.239,0,15.984,10.183,15.984,17.261
	C361.322,48.582,357.577,58.764,345.338,58.764z M469.746,51.96c5.434-0.002,10.869-0.002,16.304,0c0,1.979,0,3.955,0,5.937
	c-7.719-0.002-15.437-0.002-23.153,0c0-10.932,0-21.86,0-32.788c2.284,0,4.565,0,6.85,0
	C469.746,34.058,469.746,43.008,469.746,51.96z M444.59,40.222c4.569,0,9.135,0,13.703,0c0,5.891,0,11.781,0,17.675
	c-1.523-0.002-3.045-0.002-4.568,0c-0.228-1.37-0.455-2.742-0.686-4.109c-1.733,2.008-4.246,4.977-10.229,4.977
	c-7.898,0-15.068-5.663-15.068-17.171c0-8.949,4.978-17.398,16.027-17.353c10.047,0,14.02,6.531,14.386,11.05
	c-2.284,0-4.565,0-6.85,0c0-1.279-2.331-5.386-7.17-5.386c-4.886,0-9.408,3.378-9.408,11.781c0,8.95,4.889,11.277,9.543,11.277
	c1.51,0,6.533-0.594,7.947-7.213c-2.543-0.003-5.084-0.003-7.628,0C444.59,43.906,444.59,42.066,444.59,40.222z M345.338,28.167
	c-7.124,0-11.415,5.617-11.415,13.334s4.292,13.334,11.415,13.334s11.416-5.617,11.416-13.334S352.461,28.167,345.338,28.167z
	 M363.779,36.927c1.109,0,2.218,0,3.327,0c0,0.99,0,1.979,0,2.967c0.026,0,0.054,0,0.081,0c0.84-1.201,2.445-3.566,6.253-3.566
	c5.574,0,9.543,4.722,9.543,10.615c0,5.013-2.889,11.554-10.024,11.554c-2.806,0-4.653-1.322-5.574-2.806c-0.026,0-0.052,0-0.078,0
	c0,3.5,0,7.003,0,10.506c-1.178-0.003-2.354-0.003-3.529,0C363.779,56.44,363.779,46.683,363.779,36.927z M372.694,55.448
	c3.849,0,6.456-3.332,6.456-7.944c0-2.685-1.083-8.011-6.537-8.011c-5.092,0-5.655,5.494-5.655,8.9
	C366.959,53.968,370.448,55.448,372.694,55.448z M404.335,51.322c-0.121,1.003-1.084,3.969-3.728,5.731
	c-0.963,0.643-2.324,1.443-5.692,1.443c-5.894,0-9.382-4.451-9.382-10.503c0-6.495,3.126-11.666,10.062-11.666
	c6.055,0,9.022,4.812,9.022,12.229c-5.104,0-10.212,0-15.316,0c0,4.37,2.045,6.893,6.095,6.893c3.328,0,5.292-2.563,5.41-4.127
	C401.984,51.322,403.16,51.322,404.335,51.322z M400.596,45.747c-0.199-3.247-1.564-6.254-5.854-6.254
	c-3.247,0-5.812,3.007-5.812,6.254C392.818,45.747,396.707,45.747,400.596,45.747z M424.115,57.897
	c-1.178-0.002-2.353-0.002-3.529,0c0-4.303,0-8.606,0-12.909c0-3.65-1.041-5.494-4.49-5.494c-2.004,0-5.533,1.284-5.533,6.977
	c0,3.808,0,7.617,0,11.427c-1.175-0.002-2.352-0.002-3.525,0c0-6.99,0-13.979,0-20.97c1.108,0,2.218,0,3.326,0
	c0,0.99,0,1.979,0,2.967c0.026,0,0.052,0,0.081,0c0.761-1.121,2.725-3.566,6.334-3.566c3.247,0,7.337,1.323,7.337,7.297
	C424.115,48.38,424.115,53.139,424.115,57.897z"/>
<path id="path78" fill="#777777" d="M345.254,61.298c-8.958,0-13.366-5.455-15.083-11.159c1.938,9.256,12.421,18.318,45.49,22.359
	c31.245,3.816,51.608-5.755,58.476-10.212c0,0,4.64-2.039,1.854,1.114c0,0-19.678,18.194-58.288,18.379
	c-38.612,0.184-69.24-19.306-69.055-38.983c-0.185-19.677,30.443-39.17,69.055-38.981c38.61,0.184,58.288,18.377,58.288,18.377
	c2.785,3.154-1.854,1.112-1.854,1.112c-6.868-4.454-27.145-13.228-58.476-10.209c-30.813,2.97-40.873,13.44-44.214,20.495
	c-1.284,2.714-1.866,5.274-2.014,7.853c0.833-6.732,5.019-14.668,15.82-14.668c12.239,0,15.984,10.187,15.984,17.264
	S357.494,61.298,345.254,61.298z M469.662,54.495c5.437,0,10.869,0,16.305,0c0,1.978,0,3.957,0,5.937c-7.717,0-15.438,0-23.153,0
	c0-10.93,0-21.858,0-32.787c2.284,0,4.568,0,6.849,0C469.662,36.594,469.662,45.544,469.662,54.495z M444.51,42.759
	c4.565,0,9.134,0,13.7,0c0,5.891,0,11.781,0,17.673c-1.524,0-3.045,0-4.566,0c-0.229-1.372-0.458-2.74-0.686-4.111
	c-1.736,2.011-4.248,4.978-10.231,4.978c-7.897,0-15.067-5.662-15.067-17.17c0-8.951,4.977-17.399,16.026-17.354
	c10.048,0,14.02,6.53,14.386,11.053c-2.281,0-4.565,0-6.85,0c0-1.279-2.328-5.39-7.17-5.39c-4.885,0-9.405,3.379-9.405,11.781
	c0,8.95,4.886,11.281,9.544,11.281c1.506,0,6.53-0.595,7.944-7.216c-2.541,0-5.085,0-7.625,0
	C444.51,46.444,444.51,44.6,444.51,42.759z M345.254,30.703c-7.124,0-11.416,5.617-11.416,13.335
	c0,7.717,4.292,13.334,11.416,13.334s11.418-5.617,11.418-13.334C356.673,36.321,352.378,30.703,345.254,30.703z M363.696,39.463
	c1.109,0,2.218,0,3.327,0c0,0.988,0,1.979,0,2.968c0.029,0,0.054,0,0.081,0c0.841-1.205,2.445-3.569,6.253-3.569
	c5.574,0,9.546,4.725,9.546,10.618c0,5.013-2.889,11.554-10.027,11.554c-2.806,0-4.65-1.322-5.571-2.806c-0.029,0-0.055,0-0.081,0
	c0,3.5,0,7.002,0,10.502c-1.175,0-2.354,0-3.529,0C363.696,58.974,363.696,49.217,363.696,39.463z M372.611,57.986
	c3.848,0,6.459-3.335,6.459-7.944c0-2.688-1.086-8.011-6.54-8.011c-5.09,0-5.652,5.49-5.652,8.898
	C366.878,56.503,370.367,57.986,372.611,57.986z M404.251,53.855c-0.118,1.003-1.081,3.97-3.728,5.735
	c-0.962,0.639-2.324,1.443-5.691,1.443c-5.894,0-9.382-4.45-9.382-10.506c0-6.492,3.129-11.666,10.064-11.666
	c6.052,0,9.019,4.811,9.019,12.229c-5.104,0-10.209,0-15.315,0c0,4.369,2.045,6.896,6.095,6.896c3.327,0,5.292-2.566,5.412-4.131
	C401.9,53.855,403.076,53.855,404.251,53.855z M400.512,48.284c-0.198-3.247-1.561-6.254-5.85-6.254
	c-3.25,0-5.813,3.007-5.813,6.254C392.737,48.284,396.626,48.284,400.512,48.284z M424.032,60.432c-1.176,0-2.354,0-3.529,0
	c0-4.304,0-8.607,0-12.911c0-3.646-1.042-5.49-4.49-5.49c-2.005,0-5.53,1.281-5.53,6.974c0,3.812,0,7.618,0,11.428
	c-1.178,0-2.354,0-3.529,0c0-6.989,0-13.979,0-20.969c1.109,0,2.219,0,3.327,0c0,0.988,0,1.979,0,2.968c0.025,0,0.054,0,0.081,0
	c0.76-1.124,2.725-3.569,6.334-3.569c3.246,0,7.337,1.325,7.337,7.297C424.032,50.917,424.032,55.673,424.032,60.432z"/>
<path id="path82" fill="#707070" d="M345.174,58.595c-8.961,0-13.369-5.459-15.086-11.159c1.939,9.255,12.421,18.314,45.493,22.358
	c31.242,3.816,51.604-5.755,58.473-10.212c0,0,4.64-2.042,1.857,1.115c0,0-19.677,18.19-58.288,18.377
	C339.01,79.26,308.38,59.77,308.568,40.093c-0.188-19.678,30.442-39.17,69.055-38.982c38.611,0.184,58.288,18.374,58.288,18.374
	c2.782,3.157-1.857,1.115-1.857,1.115c-6.868-4.456-27.142-13.23-58.473-10.209c-30.816,2.971-40.875,13.438-44.217,20.493
	c-1.284,2.715-1.866,5.273-2.011,7.852c0.833-6.729,5.016-14.665,15.82-14.665c12.236,0,15.981,10.184,15.981,17.261
	C361.155,48.411,357.41,58.595,345.174,58.595z M469.582,51.79c5.434,0,10.868,0,16.301,0c0,1.979,0,3.958,0,5.938
	c-7.717,0-15.434,0-23.15,0c0-10.932,0-21.861,0-32.79c2.281,0,4.565,0,6.85,0C469.582,33.888,469.582,42.838,469.582,51.79z
	 M444.426,40.052c4.566,0,9.135,0,13.7,0c0,5.891,0,11.784,0,17.676c-1.521,0-3.045,0-4.565,0c-0.228-1.371-0.458-2.742-0.686-4.111
	c-1.733,2.008-4.246,4.979-10.229,4.979c-7.901,0-15.071-5.663-15.071-17.171c0-8.95,4.978-17.399,16.03-17.354
	c10.044,0,14.02,6.531,14.385,11.05c-2.283,0-4.567,0-6.849,0c0-1.275-2.331-5.386-7.171-5.386c-4.888,0-9.407,3.378-9.407,11.78
	c0,8.951,4.886,11.281,9.543,11.281c1.506,0,6.53-0.596,7.947-7.216c-2.544,0-5.084,0-7.628,0
	C444.426,43.737,444.426,41.896,444.426,40.052z M345.174,27.997c-7.126,0-11.418,5.617-11.418,13.334
	c0,7.72,4.292,13.334,11.418,13.334c7.124,0,11.415-5.614,11.415-13.334C356.589,33.615,352.297,27.997,345.174,27.997z
	 M363.612,36.759c1.112,0,2.221,0,3.33,0c0,0.988,0,1.977,0,2.965c0.026,0,0.051,0,0.078,0c0.844-1.201,2.445-3.566,6.256-3.566
	c5.571,0,9.543,4.725,9.543,10.618c0,5.01-2.889,11.551-10.024,11.551c-2.81,0-4.653-1.322-5.574-2.806c-0.026,0-0.052,0-0.081,0
	c0,3.503,0,7.003,0,10.506c-1.176,0-2.351,0-3.529,0C363.615,56.27,363.615,46.513,363.612,36.759z M372.527,55.281
	c3.848,0,6.458-3.335,6.458-7.947c0-2.685-1.086-8.011-6.539-8.011c-5.089,0-5.652,5.493-5.652,8.901
	C366.795,53.799,370.284,55.281,372.527,55.281z M404.17,51.151c-0.12,1.003-1.083,3.97-3.73,5.732
	c-0.961,0.643-2.324,1.443-5.692,1.443c-5.894,0-9.382-4.447-9.382-10.503c0-6.495,3.129-11.666,10.064-11.666
	c6.053,0,9.019,4.812,9.019,12.229c-5.104,0-10.208,0-15.312,0c0,4.37,2.045,6.896,6.092,6.896c3.327,0,5.292-2.566,5.413-4.131
	C401.816,51.151,402.996,51.151,404.17,51.151z M400.431,45.58c-0.202-3.25-1.564-6.257-5.853-6.257
	c-3.247,0-5.813,3.007-5.813,6.257C392.654,45.577,396.542,45.577,400.431,45.58z M423.948,57.728c-1.175,0-2.35,0-3.526,0
	c0-4.304,0-8.607,0-12.911c0-3.649-1.042-5.493-4.49-5.493c-2.004,0-5.533,1.285-5.533,6.978c0,3.808,0,7.616,0,11.427
	c-1.176,0-2.354,0-3.529,0c0-6.992,0-13.979,0-20.969c1.109,0,2.219,0,3.328,0c0,0.988,0,1.977,0,2.965c0.027,0,0.055,0,0.08,0
	c0.764-1.121,2.728-3.566,6.334-3.566c3.25,0,7.337,1.322,7.337,7.297C423.948,48.21,423.948,52.969,423.948,57.728z"/>
<path id="path86" fill="#686868" d="M345.09,61.469c-8.961,0-13.366-5.456-15.086-11.16c1.942,9.256,12.424,18.318,45.493,22.359
	c31.245,3.819,51.605-5.755,58.476-10.209c0,0,4.64-2.042,1.854,1.112c0,0-19.676,18.193-58.288,18.378
	c-38.61,0.188-69.24-19.306-69.055-38.983C308.3,23.29,338.929,3.799,377.54,3.985c38.612,0.184,58.288,18.377,58.288,18.377
	c2.786,3.157-1.854,1.115-1.854,1.115c-6.871-4.456-27.145-13.23-58.476-10.212c-30.816,2.971-40.872,13.441-44.214,20.496
	c-1.288,2.713-1.869,5.273-2.014,7.852c0.833-6.729,5.016-14.668,15.82-14.668c12.239,0,15.984,10.187,15.984,17.264
	S357.33,61.469,345.09,61.469z M469.498,54.665c5.434,0,10.869,0,16.305,0c0,1.978,0,3.957,0,5.937c-7.72,0-15.438,0-23.153,0
	c0-10.929,0-21.858,0-32.787c2.284,0,4.564,0,6.849,0C469.498,36.764,469.498,45.715,469.498,54.665z M444.343,42.929
	c4.568,0,9.134,0,13.7,0c0,5.891,0,11.782,0,17.673c-1.521,0-3.042,0-4.566,0c-0.228-1.369-0.454-2.739-0.686-4.111
	c-1.734,2.011-4.245,4.979-10.229,4.979c-7.898,0-15.067-5.66-15.067-17.168c0-8.953,4.977-17.399,16.026-17.356
	c10.048,0,14.02,6.531,14.386,11.053c-2.284,0-4.565,0-6.851,0c0-1.278-2.33-5.389-7.17-5.389c-4.884,0-9.407,3.379-9.407,11.78
	c0,8.954,4.886,11.281,9.543,11.281c1.51,0,6.534-0.593,7.948-7.216c-2.544,0-5.085,0-7.628,0
	C444.343,46.614,444.343,44.77,444.343,42.929z M345.09,30.874c-7.124,0-11.416,5.617-11.416,13.334s4.292,13.334,11.416,13.334
	s11.415-5.617,11.415-13.334S352.214,30.874,345.09,30.874z M363.532,39.633c1.109,0,2.218,0,3.327,0c0,0.988,0,1.979,0,2.968
	c0.025,0,0.054,0,0.081,0c0.841-1.201,2.445-3.569,6.253-3.569c5.574,0,9.543,4.725,9.543,10.618
	c0,5.013-2.889,11.554-10.024,11.554c-2.806,0-4.652-1.322-5.574-2.805c-0.025,0-0.052,0-0.078,0c0,3.499,0,7.002,0,10.502
	c-1.178,0-2.354,0-3.529,0C363.532,59.144,363.532,49.39,363.532,39.633z M372.447,58.156c3.848,0,6.456-3.332,6.456-7.944
	c0-2.688-1.083-8.011-6.536-8.011c-5.092,0-5.655,5.493-5.655,8.901C366.711,56.673,370.2,58.156,372.447,58.156z M404.087,54.028
	c-0.121,1.003-1.083,3.97-3.728,5.732c-0.961,0.644-2.324,1.443-5.692,1.443c-5.894,0-9.382-4.45-9.382-10.505
	c0-6.493,3.125-11.667,10.062-11.667c6.055,0,9.022,4.812,9.022,12.229c-5.104,0-10.212,0-15.316,0c0,4.369,2.045,6.896,6.095,6.896
	c3.327,0,5.292-2.566,5.41-4.128C401.736,54.028,402.912,54.028,404.087,54.028z M400.348,48.454
	c-0.199-3.247-1.563-6.254-5.853-6.254c-3.247,0-5.813,3.007-5.813,6.254C392.57,48.454,396.459,48.454,400.348,48.454z
	 M423.867,60.602c-1.178,0-2.353,0-3.528,0c0-4.304,0-8.607,0-12.908c0-3.649-1.042-5.493-4.491-5.493
	c-2.004,0-5.533,1.282-5.533,6.978c0,3.808,0,7.616,0,11.424c-1.175,0-2.351,0-3.528,0c0-6.989,0-13.979,0-20.969
	c1.112,0,2.221,0,3.33,0c0,0.988,0,1.979,0,2.968c0.025,0,0.052,0,0.081,0c0.76-1.124,2.725-3.569,6.334-3.569
	c3.246,0,7.336,1.325,7.336,7.297C423.867,51.087,423.867,55.846,423.867,60.602z"/>
<path id="path90" fill="#606060" d="M345.007,58.425c-8.958,0-13.366-5.459-15.083-11.16c1.939,9.256,12.421,18.315,45.49,22.359
	c31.245,3.816,51.604-5.755,58.476-10.211c0,0,4.64-2.043,1.854,1.113c0,0-19.677,18.191-58.288,18.379
	c-38.611,0.184-69.24-19.306-69.055-38.983c-0.185-19.676,30.444-39.17,69.055-38.981c38.611,0.184,58.288,18.374,58.288,18.374
	c2.785,3.157-1.854,1.115-1.854,1.115c-6.871-4.453-27.144-13.23-58.476-10.209c-30.813,2.971-40.872,13.438-44.214,20.492
	c-1.285,2.717-1.866,5.274-2.014,7.855c0.833-6.731,5.019-14.668,15.82-14.668c12.239,0,15.984,10.184,15.984,17.261
	C360.991,48.241,357.246,58.425,345.007,58.425z M469.415,51.621c5.436,0,10.868,0,16.304,0c0,1.978,0,3.957,0,5.937
	c-7.717,0-15.437,0-23.153,0c0-10.932,0-21.861,0-32.79c2.284,0,4.568,0,6.85,0C469.415,33.718,469.415,42.67,469.415,51.621z
	 M444.262,39.885c4.566,0,9.131,0,13.7,0c0,5.888,0,11.782,0,17.673c-1.523,0-3.045,0-4.569,0c-0.227-1.372-0.454-2.739-0.682-4.111
	c-1.737,2.008-4.249,4.979-10.231,4.979c-7.898,0-15.068-5.663-15.068-17.171c0-8.951,4.978-17.399,16.026-17.354
	c10.048,0,14.021,6.53,14.386,11.053c-2.281,0-4.564,0-6.85,0c0-1.278-2.327-5.39-7.169-5.39c-4.886,0-9.405,3.38-9.405,11.782
	c0,8.949,4.885,11.28,9.543,11.28c1.506,0,6.53-0.594,7.944-7.217c-2.541,0-5.084,0-7.625,0
	C444.262,43.567,444.262,41.726,444.262,39.885z M345.007,27.826c-7.124,0-11.416,5.617-11.416,13.335
	c0,7.721,4.292,13.337,11.416,13.337c7.123,0,11.418-5.616,11.418-13.337C356.425,33.444,352.13,27.826,345.007,27.826z
	 M363.448,36.59c1.109,0,2.218,0,3.327,0c0,0.987,0,1.976,0,2.967c0.028,0,0.054,0,0.081,0c0.841-1.205,2.445-3.569,6.253-3.569
	c5.574,0,9.546,4.725,9.546,10.618c0,5.01-2.889,11.554-10.027,11.554c-2.806,0-4.649-1.325-5.571-2.808c-0.029,0-0.055,0-0.081,0
	c0,3.502,0,7.002,0,10.504c-1.176,0-2.354,0-3.529,0C363.448,56.1,363.448,46.344,363.448,36.59z M372.363,55.113
	c3.848,0,6.458-3.336,6.458-7.947c0-2.686-1.086-8.009-6.54-8.009c-5.089,0-5.651,5.49-5.651,8.898
	C366.631,53.629,370.119,55.113,372.363,55.113z M404.004,50.981c-0.119,1.003-1.081,3.97-3.728,5.735
	c-0.961,0.64-2.324,1.443-5.692,1.443c-5.894,0-9.382-4.45-9.382-10.506c0-6.495,3.128-11.666,10.064-11.666
	c6.053,0,9.019,4.811,9.019,12.229c-5.104,0-10.208,0-15.315,0c0,4.369,2.045,6.896,6.095,6.896c3.327,0,5.292-2.567,5.413-4.132
	C401.652,50.981,402.828,50.981,404.004,50.981z M400.264,45.409c-0.199-3.248-1.562-6.253-5.85-6.253
	c-3.25,0-5.816,3.005-5.816,6.253C392.49,45.409,396.378,45.409,400.264,45.409z M423.784,57.558c-1.175,0-2.353,0-3.528,0
	c0-4.304,0-8.607,0-12.911c0-3.646-1.043-5.49-4.491-5.49c-2.005,0-5.53,1.282-5.53,6.974c0,3.809,0,7.616,0,11.428
	c-1.178,0-2.354,0-3.529,0c0-6.992,0-13.979,0-20.968c1.109,0,2.219,0,3.328,0c0,0.987,0,1.976,0,2.967c0.025,0,0.055,0,0.08,0
	c0.76-1.123,2.725-3.569,6.334-3.569c3.246,0,7.337,1.322,7.337,7.297C423.784,48.04,423.784,52.799,423.784,57.558z"/>
<path id="path94" fill="#595959" d="M344.926,61.642c-8.961,0-13.369-5.459-15.085-11.162c1.939,9.258,12.421,18.317,45.493,22.358
	c31.243,3.819,51.605-5.755,58.472-10.208c0,0,4.641-2.043,1.857,1.111c0,0-19.677,18.193-58.288,18.378
	c-38.613,0.188-69.243-19.306-69.055-38.982C308.132,23.46,338.762,3.97,377.375,4.155c38.611,0.187,58.288,18.378,58.288,18.378
	c2.783,3.157-1.857,1.114-1.857,1.114c-6.867-4.456-27.141-13.23-58.472-10.212c-30.816,2.971-40.875,13.441-44.217,20.496
	c-1.284,2.714-1.866,5.273-2.011,7.852c0.833-6.728,5.015-14.665,15.82-14.665c12.236,0,15.981,10.184,15.981,17.261
	S357.162,61.642,344.926,61.642z M469.334,54.835c5.434,0,10.869,0,16.301,0c0,1.979,0,3.957,0,5.937c-7.716,0-15.434,0-23.149,0
	c0-10.929,0-21.858,0-32.787c2.28,0,4.564,0,6.849,0C469.334,36.936,469.334,45.885,469.334,54.835z M444.178,43.099
	c4.566,0,9.135,0,13.701,0c0,5.892,0,11.782,0,17.673c-1.521,0-3.046,0-4.566,0c-0.228-1.368-0.457-2.739-0.686-4.107
	c-1.734,2.008-4.245,4.978-10.229,4.978c-7.901,0-15.071-5.663-15.071-17.171c0-8.95,4.978-17.399,16.03-17.354
	c10.045,0,14.02,6.531,14.386,11.051c-2.284,0-4.568,0-6.851,0c0-1.279-2.33-5.39-7.169-5.39c-4.889,0-9.408,3.382-9.408,11.782
	c0,8.952,4.886,11.279,9.543,11.279c1.507,0,6.531-0.593,7.947-7.216c-2.543,0-5.084,0-7.628,0
	C444.178,46.783,444.178,44.94,444.178,43.099z M344.926,31.044c-7.126,0-11.418,5.617-11.418,13.334
	c0,7.718,4.292,13.335,11.418,13.335c7.124,0,11.417-5.617,11.417-13.335C356.342,36.661,352.049,31.044,344.926,31.044z
	 M363.364,39.805c1.112,0,2.221,0,3.331,0c0,0.99,0,1.978,0,2.966c0.025,0,0.051,0,0.078,0c0.844-1.2,2.445-3.569,6.256-3.569
	c5.571,0,9.543,4.725,9.543,10.618c0,5.013-2.889,11.554-10.024,11.554c-2.809,0-4.653-1.321-5.574-2.805c-0.026,0-0.052,0-0.081,0
	c0,3.499,0,7.002,0,10.502c-1.175,0-2.351,0-3.529,0C363.367,59.317,363.367,49.56,363.364,39.805z M372.279,58.326
	c3.849,0,6.459-3.333,6.459-7.944c0-2.686-1.086-8.012-6.54-8.012c-5.089,0-5.651,5.494-5.651,8.901
	C366.547,56.843,370.036,58.326,372.279,58.326z M403.923,54.198c-0.121,1.003-1.083,3.97-3.73,5.732
	c-0.961,0.644-2.324,1.443-5.692,1.443c-5.894,0-9.382-4.45-9.382-10.502c0-6.496,3.128-11.67,10.064-11.67
	c6.053,0,9.02,4.814,9.02,12.229c-5.104,0-10.209,0-15.313,0c0,4.37,2.045,6.896,6.092,6.896c3.327,0,5.292-2.564,5.413-4.129
	C401.568,54.198,402.748,54.198,403.923,54.198z M400.184,48.624c-0.202-3.246-1.564-6.254-5.853-6.254
	c-3.247,0-5.813,3.008-5.813,6.254C392.406,48.624,396.295,48.624,400.184,48.624z M423.7,60.772c-1.175,0-2.35,0-3.528,0
	c0-4.304,0-8.607,0-12.907c0-3.65-1.039-5.494-4.488-5.494c-2.004,0-5.533,1.282-5.533,6.978c0,3.808,0,7.616,0,11.424
	c-1.175,0-2.353,0-3.529,0c0-6.987,0-13.979,0-20.967c1.109,0,2.219,0,3.328,0c0,0.99,0,1.978,0,2.966c0.028,0,0.055,0,0.08,0
	c0.764-1.123,2.728-3.569,6.334-3.569c3.25,0,7.337,1.326,7.337,7.297C423.7,51.257,423.7,56.016,423.7,60.772z"/>
<path id="path98" fill="#545454" d="M344.842,58.255c-8.961,0-13.366-5.459-15.085-11.16c1.942,9.255,12.424,18.317,45.493,22.358
	c31.245,3.817,51.604-5.755,58.476-10.21c0,0,4.64-2.043,1.854,1.113c0,0-19.677,18.191-58.288,18.379
	c-38.61,0.184-69.24-19.306-69.055-38.983c-0.185-19.676,30.445-39.17,69.055-38.982c38.611,0.185,58.288,18.378,58.288,18.378
	c2.785,3.154-1.854,1.112-1.854,1.112c-6.871-4.453-27.144-13.228-58.476-10.209c-30.816,2.971-40.872,13.44-44.214,20.495
	c-1.287,2.714-1.869,5.274-2.014,7.853c0.833-6.731,5.015-14.668,15.82-14.668c12.239,0,15.984,10.187,15.984,17.264
	S357.082,58.255,344.842,58.255z M469.251,51.45c5.433,0,10.868,0,16.301,0c0,1.979,0,3.958,0,5.938c-7.717,0-15.434,0-23.15,0
	c0-10.929,0-21.858,0-32.79c2.284,0,4.565,0,6.85,0C469.251,33.551,469.251,42.5,469.251,51.45z M444.095,39.715
	c4.569,0,9.135,0,13.7,0c0,5.892,0,11.782,0,17.673c-1.521,0-3.042,0-4.565,0c-0.228-1.372-0.455-2.739-0.686-4.111
	c-1.733,2.011-4.246,4.979-10.229,4.979c-7.898,0-15.068-5.664-15.068-17.172c0-8.95,4.977-17.397,16.027-17.353
	c10.047,0,14.02,6.53,14.385,11.054c-2.284,0-4.565,0-6.849,0c0-1.279-2.332-5.391-7.17-5.391c-4.886,0-9.409,3.38-9.409,11.782
	c0,8.949,4.886,11.279,9.544,11.279c1.509,0,6.533-0.593,7.947-7.216c-2.544,0-5.084,0-7.628,0
	C444.095,43.4,444.095,41.556,444.095,39.715z M344.842,27.66c-7.124,0-11.415,5.616-11.415,13.334
	c0,7.717,4.292,13.334,11.415,13.334s11.417-5.617,11.417-13.334C356.259,33.277,351.966,27.66,344.842,27.66z M363.284,36.42
	c1.109,0,2.218,0,3.328,0c0,0.988,0,1.979,0,2.967c0.025,0,0.054,0,0.081,0c0.84-1.204,2.445-3.569,6.253-3.569
	c5.574,0,9.543,4.725,9.543,10.618c0,5.012-2.889,11.554-10.024,11.554c-2.806,0-4.652-1.324-5.574-2.809c-0.025,0-0.052,0-0.078,0
	c0,3.503,0,7.003,0,10.505c-1.178,0-2.354,0-3.529,0C363.284,55.931,363.284,46.174,363.284,36.42z M372.199,54.943
	c3.849,0,6.456-3.336,6.456-7.945c0-2.688-1.083-8.011-6.537-8.011c-5.092,0-5.654,5.49-5.654,8.898
	C366.464,53.458,369.952,54.943,372.199,54.943z M403.84,50.811c-0.121,1.003-1.084,3.971-3.728,5.735
	c-0.962,0.64-2.324,1.443-5.692,1.443c-5.894,0-9.382-4.45-9.382-10.505c0-6.496,3.125-11.667,10.061-11.667
	c6.055,0,9.022,4.811,9.022,12.229c-5.104,0-10.211,0-15.315,0c0,4.369,2.045,6.896,6.095,6.896c3.328,0,5.292-2.567,5.41-4.132
	C401.488,50.811,402.664,50.811,403.84,50.811z M400.1,45.24c-0.199-3.248-1.564-6.253-5.854-6.253
	c-3.247,0-5.812,3.005-5.812,6.253C392.323,45.24,396.211,45.24,400.1,45.24z M423.62,57.388c-1.178,0-2.353,0-3.529,0
	c0-4.304,0-8.607,0-12.911c0-3.646-1.042-5.49-4.49-5.49c-2.005,0-5.534,1.282-5.534,6.974c0,3.809,0,7.619,0,11.428
	c-1.174,0-2.351,0-3.528,0c0-6.991,0-13.979,0-20.968c1.112,0,2.222,0,3.33,0c0,0.988,0,1.979,0,2.967c0.026,0,0.052,0,0.081,0
	c0.76-1.123,2.725-3.569,6.334-3.569c3.246,0,7.337,1.322,7.337,7.297C423.62,47.873,423.62,52.629,423.62,57.388z"/>
<path id="path102" fill="#4C4C4C" d="M344.759,61.812c-8.961,0-13.366-5.459-15.085-11.159c1.942,9.255,12.424,18.314,45.493,22.356
	c31.245,3.819,51.605-5.753,58.476-10.209c0,0,4.64-2.042,1.854,1.115c0,0-19.676,18.189-58.288,18.375
	c-38.611,0.187-69.24-19.303-69.055-38.983c-0.185-19.677,30.444-39.166,69.055-38.982c38.612,0.187,58.288,18.378,58.288,18.378
	c2.785,3.157-1.854,1.114-1.854,1.114c-6.87-4.455-27.144-13.229-58.476-10.211c-30.813,2.973-40.872,13.44-44.214,20.495
	c-1.287,2.714-1.866,5.274-2.014,7.853c0.833-6.729,5.016-14.664,15.82-14.664c12.239,0,15.984,10.182,15.984,17.259
	C360.743,51.629,356.998,61.812,344.759,61.812z M469.167,55.008h16.304v5.937h-23.153V28.156h6.85V55.008z M444.014,43.27h13.7
	v17.675h-4.567l-0.684-4.11c-1.736,2.008-4.248,4.978-10.231,4.978c-7.898,0-15.068-5.663-15.068-17.171
	c0-8.95,4.978-17.398,16.028-17.352c10.046,0,14.019,6.529,14.385,11.049h-6.85c0-1.279-2.328-5.387-7.17-5.387
	c-4.886,0-9.405,3.379-9.405,11.782c0,8.949,4.886,11.276,9.543,11.276c1.507,0,6.53-0.593,7.944-7.212h-7.625V43.27z
	 M344.759,31.215c-7.124,0-11.415,5.616-11.415,13.333c0,7.718,4.292,13.335,11.415,13.335s11.416-5.617,11.416-13.335
	C356.174,36.831,351.882,31.215,344.759,31.215z M363.2,39.975h3.327v2.966h0.081c0.84-1.2,2.445-3.565,6.253-3.565
	c5.574,0,9.546,4.721,9.546,10.614c0,5.013-2.889,11.554-10.027,11.554c-2.806,0-4.65-1.321-5.571-2.805h-0.081v10.505H363.2V39.975
	z M372.115,58.499c3.849,0,6.459-3.336,6.459-7.947c0-2.685-1.086-8.011-6.54-8.011c-5.089,0-5.652,5.493-5.652,8.9
	C366.383,57.016,369.869,58.499,372.115,58.499z M403.756,54.368c-0.118,1.003-1.081,3.97-3.728,5.732
	c-0.962,0.643-2.325,1.442-5.692,1.442c-5.894,0-9.382-4.449-9.382-10.501c0-6.497,3.129-11.667,10.062-11.667
	c6.056,0,9.021,4.811,9.021,12.228h-15.315c0,4.37,2.045,6.896,6.095,6.896c3.328,0,5.292-2.566,5.413-4.131H403.756z
	 M400.017,48.794c-0.199-3.246-1.562-6.253-5.851-6.253c-3.249,0-5.815,3.007-5.815,6.253H400.017z M423.536,60.945h-3.528v-12.91
	c0-3.65-1.043-5.493-4.49-5.493c-2.006,0-5.531,1.284-5.531,6.977v11.427h-3.529v-20.97h3.328v2.966h0.08
	c0.76-1.119,2.725-3.565,6.334-3.565c3.246,0,7.337,1.322,7.337,7.296V60.945z"/>
<path id="path106" fill="#537F9A" d="M344.759,58.171c-8.961,0-13.366-5.459-15.085-11.159c1.942,9.255,12.424,18.314,45.493,22.356
	c31.245,3.818,51.605-5.753,58.476-10.209c0,0,4.64-2.042,1.854,1.115c0,0-19.676,18.189-58.288,18.374
	c-38.611,0.188-69.24-19.303-69.055-38.982C307.968,19.99,338.598,0.5,377.208,0.684c38.612,0.187,58.288,18.378,58.288,18.378
	c2.785,3.156-1.854,1.114-1.854,1.114c-6.87-4.456-27.144-13.23-58.476-10.212c-30.813,2.974-40.872,13.441-44.214,20.496
	c-1.287,2.714-1.866,5.273-2.014,7.853c0.833-6.729,5.016-14.665,15.82-14.665c12.239,0,15.984,10.183,15.984,17.26
	C360.743,47.988,356.998,58.171,344.759,58.171z M469.167,51.367h16.304v5.937h-23.153v-32.79h6.85V51.367z M444.014,39.628h13.7
	v17.676h-4.567l-0.684-4.11c-1.736,2.007-4.248,4.978-10.231,4.978c-7.898,0-15.068-5.663-15.068-17.171
	c0-8.95,4.978-17.398,16.028-17.353c10.046,0,14.019,6.53,14.385,11.05h-6.85c0-1.279-2.328-5.387-7.17-5.387
	c-4.886,0-9.405,3.379-9.405,11.782c0,8.949,4.886,11.276,9.543,11.276c1.507,0,6.53-0.593,7.944-7.212h-7.625V39.628z
	 M344.759,27.574c-7.124,0-11.415,5.616-11.415,13.333c0,7.718,4.292,13.335,11.415,13.335s11.416-5.617,11.416-13.335
	C356.174,33.191,351.882,27.574,344.759,27.574z M363.2,36.333h3.327V39.3h0.081c0.84-1.2,2.445-3.566,6.253-3.566
	c5.574,0,9.546,4.722,9.546,10.615c0,5.013-2.889,11.554-10.027,11.554c-2.806,0-4.65-1.321-5.571-2.805h-0.081v10.505H363.2V36.333
	z M372.115,54.859c3.849,0,6.459-3.336,6.459-7.947c0-2.686-1.086-8.012-6.54-8.012c-5.089,0-5.652,5.493-5.652,8.901
	C366.383,53.375,369.869,54.859,372.115,54.859z M403.756,50.727c-0.118,1.003-1.081,3.971-3.728,5.733
	c-0.962,0.643-2.325,1.442-5.692,1.442c-5.894,0-9.382-4.45-9.382-10.502c0-6.496,3.129-11.667,10.062-11.667
	c6.056,0,9.021,4.812,9.021,12.229h-15.315c0,4.37,2.045,6.896,6.095,6.896c3.328,0,5.292-2.567,5.413-4.132H403.756z
	 M400.017,45.154c-0.199-3.246-1.562-6.254-5.851-6.254c-3.249,0-5.815,3.008-5.815,6.254H400.017z M423.536,57.304h-3.528V44.393
	c0-3.649-1.043-5.493-4.49-5.493c-2.006,0-5.531,1.285-5.531,6.978v11.427h-3.529V36.333h3.328V39.3h0.08
	c0.76-1.12,2.725-3.566,6.334-3.566c3.246,0,7.337,1.322,7.337,7.297V57.304z"/>
</svg>
