<?xml version="1.0" encoding="UTF-8" standalone="no"?>
<svg
   xmlns:dc="http://purl.org/dc/elements/1.1/"
   xmlns:cc="http://creativecommons.org/ns#"
   xmlns:rdf="http://www.w3.org/1999/02/22-rdf-syntax-ns#"
   xmlns:svg="http://www.w3.org/2000/svg"
   xmlns="http://www.w3.org/2000/svg"
   xmlns:sodipodi="http://sodipodi.sourceforge.net/DTD/sodipodi-0.dtd"
   xmlns:inkscape="http://www.inkscape.org/namespaces/inkscape"
   version="1.1"
   id="Layer_1"
   x="0px"
   y="0px"
   width="607"
   height="281"
   viewBox="0 0 607.00002 281"
   enable-background="new 0 0 1099.84 581.102"
   xml:space="preserve">
<path
   style="fill:#005697"
   inkscape:connector-curvature="0"
   id="path11"
   d="m 398.06739,71.278313 -32.77192,85.921847 c 0,0 -4.08489,7.40385 -9.91049,1.32295 l -14.85413,-24.04512 c 0,0 -1.16048,-1.67109 0.62666,-6.87004 l 34.11808,-90.076359 c 0,0 3.99204,-9.469507 10.62998,-2.901197 l 12.78848,24.903874 c 0.0232,0 2.04244,3.968837 -0.62666,11.744045"
   clip-path="url(#SVGID_2_)" /><path
   style="fill:#005697"
   inkscape:connector-curvature="0"
   id="path13"
   d="m 231.46906,24.418181 -44.07498,98.524649 c 0,0 -1.85677,2.20491 0.32493,5.31499 l 13.92575,26.15719 c 0,0 5.70955,6.82362 13.92574,-0.62666 L 260.43461,48.579349 c 0,0 3.24934,-6.220166 -0.32493,-9.330249 L 237.99095,19.637009 c -0.0232,-0.04642 -4.34019,-2.042443 -6.52189,4.781172"
   clip-path="url(#SVGID_2_)" /><path
   style="fill:#005697"
   inkscape:connector-curvature="0"
   id="path15"
   d="m 315.78945,61.62313 -33.28253,95.2521 c 0,0 -2.32096,5.15252 -6.96288,0.95159 l -19.33357,-25.83226 c 0,0 -1.85677,-2.1817 0,-5.77918 L 292.4174,31.265006 c 0,0 4.89722,-11.047758 11.60479,-3.27255 l 12.67243,23.975491 c 0.0232,0 0.95159,3.411807 -0.90517,9.655183"
   clip-path="url(#SVGID_2_)" /><path
   style="fill:#3976ad"
   inkscape:connector-curvature="0"
   id="path17"
   d="m 184.58572,53.522988 c 0,0 -10.49073,6.220166 -4.92043,15.573625 l 10.81566,16.478798 c 0,0 4.96685,9.655183 15.17906,1.253317 l 53.52128,-40.152564 c 0,0 4.03847,-2.785149 1.85677,-6.521891 l -21.3296,-19.147899 c 0,0 -2.78515,-3.875999 -7.42707,-0.139258 l -47.69567,32.655872 z"
   clip-path="url(#SVGID_2_)" /><path
   style="fill:#3976ad"
   inkscape:connector-curvature="0"
   id="path19"
   d="m 193.59103,126.37784 c 0,0 -3.11008,3.41181 -5.89523,1.53184 l 13.60081,26.15719 c 0,0 4.64192,6.87003 13.62402,0.32493 l 99.59229,-96.830346 c 0,0 4.3634,-2.808358 0.95159,-8.100141 L 304.02219,27.969246 c 0,0 -4.3634,-5.593507 -9.28383,-0.324934 L 193.59103,126.37784 z"
   clip-path="url(#SVGID_2_)" /><path
   style="fill:#3976ad"
   inkscape:connector-curvature="0"
   id="path21"
   d="M 377.36445,33.934107 260.71312,130.74124 c 0,0 -2.13528,2.78515 -5.24536,0 l 20.74936,27.68903 c 0,0 6.7772,7.45027 16.71089,-1.23011 L 396.8837,64.408279 c 0,0 3.78316,-2.645892 0.60345,-7.148549 L 386.02162,34.83928 c 0,0.02321 -3.08687,-4.966849 -8.65717,-0.905173"
   clip-path="url(#SVGID_2_)" /><path
   style="fill:#3976ad"
   inkscape:connector-curvature="0"
   id="path23"
   d="m 341.15751,135.40637 14.20426,23.0239 c 0,0 5.29178,7.45027 14.85413,1.55504 L 527.06621,46.049505 c 0,0 6.49868,-4.990059 4.03846,-12.440332 l -5.87202,-23.023899 c 0,0 -2.78515,-5.9416507 -9.88728,-1.2765262 L 341.15751,135.40637 z"
   clip-path="url(#SVGID_2_)" /><path
   inkscape:connector-curvature="0"
   id="path25"
   d="M 278.65413,43.774967 V 22.398948 c 0,0 -0.32494,-7.705579 3.11008,-11.813674 0,0 1.90318,-2.8547773 6.8004,-3.7367411 l 11.04776,-1.531832 0.0928,-5.31499265 H 227.9412 l -0.0232,5.63992675 10.86209,1.5086224 c 0,0 3.96883,0.9051734 5.24536,6.2433756 0,0 0.9748,3.759951 0.92838,10.9085 l -0.34814,52.384011 34.04845,-32.911177 z"
   clip-path="url(#SVGID_2_)" /><path
   inkscape:connector-curvature="0"
   id="path27"
   d="M 356.61509,50.761049 V 19.915524 c 0,0 -0.13926,-4.40982 1.85676,-7.798418 0,0 2.1817,-3.4118071 7.42707,-4.3633997 l 7.33422,-1.8335564 0.0696,-5.63992675 h -46.41915 l -0.0928,4.82759165 7.51991,1.415784 c 0,0 4.40982,0.8587543 7.96088,3.7831612 0,0 3.876,3.24934 4.43303,8.680381 l 0.30172,39.82763 9.60877,-8.053722 z"
   clip-path="url(#SVGID_2_)" /><path
   inkscape:connector-curvature="0"
   id="path29"
   d="m 300.6568,150.35334 c 1.39258,0.0696 2.83157,0.0928 4.31698,0.0928 0,0 49.97022,3.34218 51.6181,-49.99342 l -10.21221,8.79643 c -2.29775,12.09219 -9.53914,28.75666 -32.19169,29.0816 l -13.53118,12.02256 z"
   clip-path="url(#SVGID_2_)" /><path
   inkscape:connector-curvature="0"
   id="path31"
   d="m 255.53739,131.01976 c -2.64589,-3.34218 -4.64192,-6.82362 -6.15054,-10.23542 l 29.29049,-28.03717 -0.0232,15.06301 c 0.0464,2.52985 0.32493,4.85081 0.76591,6.98609 l -18.70692,15.94497 c 0,0 -1.85676,2.15849 -5.17573,0.27852"
   clip-path="url(#SVGID_2_)" /><path
   style="fill:#005697"
   inkscape:connector-curvature="0"
   id="path33"
   d="M -3.1875001e-5,180.61862 H 7.4038225 v 43.77326 c -0.069629,4.80438 0.8123352,12.50996 12.6956375,12.50996 11.883302,0 12.788476,-7.70558 12.695638,-12.50996 v -43.77326 h 7.427064 v 46.18706 c 0,10.9085 -7.960885,16.15386 -20.122702,16.15386 -12.1386077,0 -20.099491875001,-5.26857 -20.099491875001,-16.15386 v -46.18706 z"
   clip-path="url(#SVGID_2_)" /><path
   style="fill:#005697"
   inkscape:connector-curvature="0"
   id="path35"
   d="m 60.762635,201.32156 c 3.574275,-3.876 7.241388,-6.17375 12.6028,-6.17375 7.427064,0 12.254655,3.57428 12.254655,11.53516 v 34.83758 h -7.055711 v -33.05044 c 0,-4.71154 -1.694298,-7.89125 -7.427063,-7.89125 -2.599473,0 -5.106107,0.90517 -6.962873,2.50663 -2.877987,2.36738 -3.226131,4.96685 -3.226131,8.21619 v 30.19566 h -7.055711 v -45.14263 h 6.870034 v 4.96685 z"
   clip-path="url(#SVGID_2_)" /><path
   style="fill:#005697"
   inkscape:connector-curvature="0"
   id="path37"
   d="m 98.478195,196.37792 h 7.055715 v 45.14263 h -7.055715 v -45.14263 z m 0,-15.7593 h 7.055715 v 8.14656 h -7.055715 v -8.14656 z"
   clip-path="url(#SVGID_2_)" /><polygon
   style="fill:#005697"
   id="polygon39"
   points="183.261,559.971 183.747,561.682 183.754,561.682 184.239,559.971 184.555,559.971 183.912,561.916 183.581,561.916 182.946,559.971 "
   clip-path="url(#SVGID_2_)"
   transform="matrix(23.209575,0,0,23.209575,-4133.0451,-12800.311)" /><path
   style="fill:#005697"
   inkscape:connector-curvature="0"
   id="path41"
   d="m 162.7223,214.22609 c 0.27851,-5.33821 0.44098,-13.64723 8.68038,-13.64723 8.21619,0 7.86805,8.37865 8.14656,13.64723 H 162.7223 m 17.17508,12.27786 c 0.44099,5.12932 -1.43899,10.81566 -8.21619,10.81566 -9.91048,0 -8.75001,-11.69762 -8.93568,-17.80174 h 24.13796 c -0.34815,-10.53715 0.53382,-24.37006 -15.55042,-24.37006 -13.13662,0 -15.92177,14.20426 -15.92177,23.69698 0,18.19631 6.70757,23.88265 16.08424,23.88265 10.44431,0 15.45757,-7.38064 15.01659,-16.2467 h -6.61473 z"
   clip-path="url(#SVGID_2_)" /><path
   style="fill:#005697"
   inkscape:connector-curvature="0"
   id="path43"
   d="m 205.26545,203.75857 h 0.16247 c 2.94761,-5.91844 7.14855,-8.42508 14.57561,-7.86805 v 6.31301 c -9.12136,-1.46221 -14.48278,3.73674 -14.48278,11.95293 v 27.36409 h -7.05571 v -45.14263 h 6.80041 v 7.38065 z"
   clip-path="url(#SVGID_2_)" /><path
   style="fill:#005697"
   inkscape:connector-curvature="0"
   id="path45"
   d="m 248.08712,208.47011 c 0.2553,-5.36141 -1.87998,-7.89125 -7.86805,-7.89125 -5.01327,0 -7.86805,2.13528 -7.86805,6.82361 0,5.84881 5.26858,6.59152 10.09617,8.44829 7.14855,2.9244 14.2971,4.54907 14.2971,12.99736 0,8.61075 -6.61473,13.97216 -16.80374,13.90253 -4.3634,0.0696 -9.74802,-1.32294 -12.32428,-4.71154 -2.94762,-3.57428 -2.78515,-6.56831 -2.78515,-9.65518 h 6.70757 c -0.27852,5.50067 1.78714,8.93568 8.40186,8.93568 5.73277,0 9.46951,-2.11207 9.46951,-7.63595 0,-6.40584 -7.14855,-6.98608 -12.23144,-8.93568 -7.70558,-2.59948 -12.16182,-4.96685 -12.16182,-12.8349 0,-7.79842 5.98807,-12.76527 14.5524,-12.76527 9.84086,0 15.55042,4.08489 15.38795,13.3223 h -6.87003 z"
   clip-path="url(#SVGID_2_)" /><path
   style="fill:#005697"
   inkscape:connector-curvature="0"
   id="path47"
   d="m 267.09576,196.37792 h 7.07892 v 45.14263 h -7.07892 v -45.14263 z m 0,-15.7593 h 7.07892 v 8.14656 h -7.07892 v -8.14656 z"
   clip-path="url(#SVGID_2_)" /><path
   style="fill:#005697"
   inkscape:connector-curvature="0"
   id="path49"
   d="m 295.15613,196.37792 h 8.30903 v 5.43104 h -8.21619 v 30.7759 c 0,1.53183 -0.62666,3.48144 3.31897,3.48144 h 4.73475 v 5.43104 h -7.7752 c -4.20094,0.0928 -7.33423,-0.55703 -7.33423,-7.38065 v -32.33094 h -6.87003 v -5.43104 h 6.87003 v -12.25465 h 6.96287 v 12.27786 z"
   clip-path="url(#SVGID_2_)" /><path
   style="fill:#005697"
   inkscape:connector-curvature="0"
   id="path51"
   d="m 316.53215,214.22609 c 0.27852,-5.33821 0.44098,-13.64723 8.68038,-13.64723 8.21619,0 7.86805,8.37865 8.14656,13.64723 h -16.82694 m 2.76194,-23.39526 h 5.98807 l 11.69763,-11.44232 h -9.74802 l -7.93768,11.44232 m 14.38994,35.67312 c 0.44098,5.12932 -1.439,10.81566 -8.21619,10.81566 -9.91049,0 -8.75001,-11.69762 -8.93569,-17.80174 h 24.13796 c -0.34814,-10.53715 0.53382,-24.37006 -15.55042,-24.37006 -13.13661,0 -15.92176,14.20426 -15.92176,23.69698 0,18.19631 6.70756,23.88265 16.08423,23.88265 10.46752,0 15.45758,-7.38064 15.0166,-16.2467 h -6.61473 z"
   clip-path="url(#SVGID_2_)" /><path
   style="fill:#005697"
   inkscape:connector-curvature="0"
   id="path53"
   d="m 409.92748,195.44954 h 16.13066 v 83.8794 h -9.16779 v -69.11811 c 0,-3.57428 0.20889,-7.05571 0,-10.62999 h -0.23209 c -0.99801,4.92043 -1.76393,8.07694 -2.52985,11.27986 l -17.36076,68.44503 h -10.93171 l -17.36076,-69.44304 c -0.78912,-2.9012 -1.4622,-5.70956 -2.437,-10.28185 h -0.2321 c 0,3.57428 0.2321,7.2646 0.2321,10.86208 v 68.88602 h -9.191 v -83.8794 h 16.24671 l 16.2467,65.42779 c 0.88196,3.57428 1.32294,7.05571 1.76393,12.39391 h 0.23209 c 0.53382,-4.24735 1.09085,-8.35544 2.08886,-12.50996 l 16.50201,-65.31174 z"
   clip-path="url(#SVGID_2_)" /><path
   style="fill:#005697"
   inkscape:connector-curvature="0"
   id="path55"
   d="m 466.18749,260.87733 c 0,10.07296 -7.2878,12.64922 -10.60677,12.64922 -7.07892,0 -8.61076,-4.03847 -8.61076,-10.28184 0,-4.27056 1.32295,-8.84285 5.40783,-10.74604 4.64192,-2.25132 9.51593,-4.15451 13.8097,-6.70756 v 15.08622 m 14.38994,11.97614 c -1.23011,0.11605 -2.55306,0.2321 -3.75995,-0.11605 -1.76393,-0.88196 -1.55504,-3.13329 -1.55504,-4.68833 v -35.67312 c 0,-1.4622 1.55504,-16.89657 -16.68769,-16.89657 -12.3707,0 -18.68371,5.5703 -18.24272,18.45161 h 7.84483 c -0.11605,-7.26459 0.99801,-10.97812 8.9589,-10.97812 7.07892,0 9.72481,2.69231 9.72481,9.74802 0,3.24934 0.23209,5.68634 -1.64788,7.17176 -1.09085,0.88196 -13.50797,5.57029 -18.45161,7.82162 -8.51792,3.80637 -8.84285,12.74206 -8.84285,15.08623 0,11.27985 3.55106,18.21951 15.80572,18.21951 5.87202,0 11.51195,-4.57228 13.60081,-10.07295 h 0.2321 c 0.88196,8.4947 3.6439,9.19099 11.04775,8.84285 0.64987,-0.2321 1.32295,-0.34815 1.99603,-0.4642 v -6.45226 z"
   clip-path="url(#SVGID_2_)" /><path
   style="fill:#005697"
   inkscape:connector-curvature="0"
   id="path57"
   d="m 491.50914,217.15049 h 8.7268 v 62.17845 h -8.7268 v -62.17845 z m 0,-21.70095 h 8.7268 v 11.18701 h -8.7268 v -11.18701 z"
   clip-path="url(#SVGID_2_)" /><path
   style="fill:#005697"
   inkscape:connector-curvature="0"
   id="path59"
   d="m 524.67562,223.97411 c 4.40982,-5.36141 8.9589,-8.49471 15.57363,-8.49471 9.16778,0 15.13264,4.92043 15.13264,15.89856 v 47.95098 h -8.7268 v -45.51397 c 0,-6.47547 -2.08886,-10.86208 -9.16778,-10.86208 -3.20293,0 -6.31301,1.2301 -8.63397,3.45822 -3.52785,3.24934 -3.99204,6.82362 -3.99204,11.30307 v 41.59155 h -8.7268 v -62.17845 h 8.51791 v 6.84683 z"
   clip-path="url(#SVGID_2_)" /><path
   style="fill:#005697"
   inkscape:connector-curvature="0"
   id="path61"
   d="m 577.17568,241.75264 c 0.32493,-7.35743 0.55703,-18.79975 10.72282,-18.79975 10.1658,0 9.72481,11.51194 10.04975,18.79975 h -20.77257 m 21.21355,16.87336 c 0.53382,7.05571 -1.76393,14.90055 -10.16579,14.90055 -12.27787,0 -10.83887,-16.10745 -11.07097,-24.50931 h 29.84751 c -0.44098,-14.55241 0.64987,-33.53784 -19.24073,-33.53784 -16.24671,0 -19.68172,19.56567 -19.68172,32.65587 0,25.04314 8.28581,32.86476 19.8906,32.86476 12.92773,0 19.12469,-10.16579 18.56766,-22.37403 h -8.14656 z"
   clip-path="url(#SVGID_2_)" /><path
   style="fill:#005697"
   inkscape:connector-curvature="0"
   id="path63"
   d="m 311.84382,270.30042 c 0,2.62268 -1.06764,6.89324 -4.80438,6.89324 -4.94364,0 -5.12932,-4.52586 -5.12932,-9.51592 0,-7.10213 1.9496,-9.23741 4.96685,-9.23741 4.8508,0 4.94364,5.84881 4.94364,9.00531 v 2.85478 m 0.0232,-11.67442 h -0.0928 c -1.6943,-1.99602 -3.24934,-2.99403 -5.84881,-2.99403 -5.43104,0 -7.91447,5.3382 -7.63595,12.1154 0.0928,2.04244 -0.55703,12.20823 7.45027,12.20823 3.06366,0 4.61871,-0.90517 6.17375,-3.6439 h 0.0928 v 3.04045 h 3.45822 v -31.17046 h -3.59748 V 258.626 z"
   clip-path="url(#SVGID_2_)" /><path
   style="fill:#005697"
   inkscape:connector-curvature="0"
   id="path65"
   d="m 334.70525,276.33491 h -0.0928 c -1.25332,2.39058 -3.57427,3.6439 -6.03449,3.6439 -3.80637,0 -6.12733,-1.83355 -6.12733,-5.89523 v -17.84816 h 3.6207 v 17.941 c 0,1.97281 0.69628,2.99403 3.24934,2.99403 1.74072,0 3.34218,-0.69628 4.3634,-2.04244 0.81233,-1.16048 1.04443,-2.71552 1.04443,-4.06168 v -14.85412 h 3.59748 v 23.11673 h -3.59748 v -2.99403 z"
   clip-path="url(#SVGID_2_)" />
</svg>